<svg width="32" height="32" viewBox="0 0 32 32" fill="none" xmlns="http://www.w3.org/2000/svg">
<path fill-rule="evenodd" clip-rule="evenodd" d="M2 16C2 23.732 8.26801 30 16 30C23.732 30 30 23.732 30 16C30 8.26801 23.732 2 16 2C8.26801 2 2 8.26801 2 16ZM16 0C7.16344 0 0 7.16344 0 16C0 24.8366 7.16344 32 16 32C24.8366 32 32 24.8366 32 16C32 7.16344 24.8366 0 16 0Z" fill="#888888"/>
<path fill-rule="evenodd" clip-rule="evenodd" d="M21.1923 12.2218L12.707 20.7071L11.2928 19.2929L19.7781 10.8076L21.1923 12.2218Z" fill="#888888"/>
<path fill-rule="evenodd" clip-rule="evenodd" d="M12.2217 10.8076L20.707 19.2929L19.2928 20.7071L10.8075 12.2218L12.2217 10.8076Z" fill="#888888"/>
</svg>
