<svg width="18" height="20" viewBox="0 0 18 20" fill="none" xmlns="http://www.w3.org/2000/svg">
<path d="M12.5002 8.7501C12.5002 9.74463 12.1051 10.6984 11.4019 11.4017C10.6987 12.1049 9.74487 12.5 8.75035 12.5C7.75582 12.5 6.80203 12.1049 6.0988 11.4017C5.39556 10.6984 5.00049 9.74463 5.00049 8.7501C5.00049 7.75558 5.39556 6.80179 6.0988 6.09855C6.80203 5.39532 7.75582 5.00024 8.75035 5.00024C9.74487 5.00024 10.6987 5.39532 11.4019 6.09855C12.1051 6.80179 12.5002 7.75558 12.5002 8.7501ZM11.2503 8.7501C11.2503 8.08709 10.9869 7.45123 10.518 6.9824C10.0492 6.51358 9.41336 6.2502 8.75035 6.2502C8.08733 6.2502 7.45147 6.51358 6.98265 6.9824C6.51382 7.45123 6.25044 8.08709 6.25044 8.7501C6.25044 9.41312 6.51382 10.049 6.98265 10.5178C7.45147 10.9866 8.08733 11.25 8.75035 11.25C9.41336 11.25 10.0492 10.9866 10.518 10.5178C10.9869 10.049 11.2503 9.41312 11.2503 8.7501Z" fill="#FF8C0A"/>
<path d="M14.9375 14.9436C16.5785 13.3017 17.5004 11.0753 17.5004 8.75384C17.5004 6.43241 16.5785 4.20599 14.9375 2.56407C14.1251 1.7512 13.1606 1.10636 12.099 0.666402C11.0373 0.226447 9.8994 0 8.75021 0C7.60102 0 6.46309 0.226447 5.40145 0.666402C4.33981 1.10636 3.37527 1.7512 2.56295 2.56407C0.921874 4.20599 0 6.43241 0 8.75384C0 11.0753 0.921874 13.3017 2.56295 14.9436L4.46412 16.8173L7.01778 19.2984L7.18402 19.4459C8.15273 20.2309 9.57143 20.1809 10.4839 19.2984L13.5275 16.3361L14.9375 14.9436ZM3.44416 3.44529C4.14085 2.74829 4.96804 2.19538 5.87847 1.81815C6.78889 1.44092 7.76473 1.24676 8.75021 1.24676C9.7357 1.24676 10.7115 1.44092 11.622 1.81815C12.5324 2.19538 13.3596 2.74829 14.0563 3.44529C15.4246 4.81455 16.2113 6.65931 16.2523 8.59466C16.2933 10.53 15.5854 12.4064 14.2763 13.8324L14.0563 14.0624L12.4051 15.6923L9.61768 18.4022L9.50018 18.5022C9.28407 18.6651 9.02082 18.7531 8.75021 18.7531C8.47961 18.7531 8.21636 18.6651 8.00024 18.5022L7.88399 18.4022L4.15914 14.7711L3.44416 14.0624L3.22417 13.8336C1.91503 12.4077 1.2071 10.5313 1.24809 8.59591C1.28907 6.66056 2.07582 4.8158 3.44416 3.44654V3.44529Z" fill="#FF8C0A"/>
</svg>
