<svg width="41" height="41" viewBox="0 0 41 41" fill="none" xmlns="http://www.w3.org/2000/svg">
<path d="M28.1875 15.375C28.1875 17.4139 27.3776 19.3692 25.9359 20.8109C24.4942 22.2526 22.5389 23.0625 20.5 23.0625C18.4611 23.0625 16.5058 22.2526 15.0641 20.8109C13.6224 19.3692 12.8125 17.4139 12.8125 15.375C12.8125 13.3361 13.6224 11.3808 15.0641 9.93912C16.5058 8.49743 18.4611 7.6875 20.5 7.6875C22.5389 7.6875 24.4942 8.49743 25.9359 9.93912C27.3776 11.3808 28.1875 13.3361 28.1875 15.375Z" fill="#444444"/>
<path fill-rule="evenodd" clip-rule="evenodd" d="M0 20.5C0 15.0631 2.15982 9.84881 6.00431 6.00431C9.84881 2.15982 15.0631 0 20.5 0C25.9369 0 31.1512 2.15982 34.9957 6.00431C38.8402 9.84881 41 15.0631 41 20.5C41 25.9369 38.8402 31.1512 34.9957 34.9957C31.1512 38.8402 25.9369 41 20.5 41C15.0631 41 9.84881 38.8402 6.00431 34.9957C2.15982 31.1512 0 25.9369 0 20.5ZM20.5 2.5625C17.1221 2.56268 13.8128 3.51668 10.9532 5.3147C8.0935 7.11271 5.79966 9.68166 4.33566 12.7259C2.87165 15.7701 2.29699 19.1658 2.67781 22.5222C3.05863 25.8786 4.37945 29.0593 6.48825 31.6981C8.30762 28.7666 12.3128 25.625 20.5 25.625C28.6872 25.625 32.6898 28.7641 34.5117 31.6981C36.6206 29.0593 37.9414 25.8786 38.3222 22.5222C38.703 19.1658 38.1283 15.7701 36.6643 12.7259C35.2003 9.68166 32.9065 7.11271 30.0468 5.3147C27.1872 3.51668 23.8779 2.56268 20.5 2.5625Z" fill="#444444"/>
</svg>
