<svg width="139" height="136" viewBox="0 0 139 136" fill="none" xmlns="http://www.w3.org/2000/svg">
<path fill-rule="evenodd" clip-rule="evenodd" d="M136.367 89.895C136.367 89.895 122.363 71.0225 104.775 71.0066C77.7192 71.0066 76.7042 72.8463 77.9571 72.0533L76.8787 75.6692C76.8787 75.6692 95.4341 103.835 135.082 92.1788L136.367 89.895Z" fill="url(#paint0_radial_189_616)"/>
<path fill-rule="evenodd" clip-rule="evenodd" d="M111.658 90.1965C119.271 92.3284 127.219 93.001 135.082 92.1789C138.254 91.9886 138.587 91.4652 135.859 89.5145C129.665 84.5976 122.617 80.8663 115.068 78.5082C96.4808 72.5927 80.8118 75.1777 77.9571 72.0059L76.6884 73.5918L76.8787 75.6694C81.0338 74.5275 92.8173 85.185 111.658 90.1965Z" fill="#F99329"/>
<path fill-rule="evenodd" clip-rule="evenodd" d="M133.385 90.1012C133.385 90.1012 117.526 77.0807 81.4302 75.0032C81.4302 75.0032 111.531 91.37 133.385 90.1012Z" fill="url(#paint1_linear_189_616)"/>
<path fill-rule="evenodd" clip-rule="evenodd" d="M95.1486 8.66382C95.1486 8.66382 77.5131 19.02 73.5482 35.7674C69.7579 51.7219 73.2152 65.0754 72.2002 65.2657L75.721 66.6455C72.8187 64.3142 107.265 49.0099 97.3213 10.1546L95.1486 8.66382Z" fill="url(#paint2_radial_189_616)"/>
<path fill-rule="evenodd" clip-rule="evenodd" d="M48.332 134.603C48.332 134.603 64.3657 123.802 69.9482 107.499C73.2978 98.0139 73.7613 87.749 71.2804 78.0006L67.7596 76.6367C70.2971 78.0165 40.7195 94.082 46.1592 133.128L48.332 134.603Z" fill="url(#paint3_radial_189_616)"/>
<path fill-rule="evenodd" clip-rule="evenodd" d="M136.256 45.045C136.256 45.045 116.939 39.4784 101.683 47.4556C87.8534 54.6875 79.7969 66.4868 79.0515 66.4868L80.4154 70.0076C80.4154 67.1212 115.417 81.3787 136.637 47.6777L136.256 45.045Z" fill="url(#paint4_radial_189_616)"/>
<path fill-rule="evenodd" clip-rule="evenodd" d="M7.25623 98.3164C7.25623 98.3164 26.1288 102.82 41.8295 95.89C51.0906 91.9259 58.9668 85.3025 64.4608 76.8588L63.0969 73.338C62.748 75.1777 30.6329 65.5035 6.87561 95.7948L7.25623 98.3164Z" fill="url(#paint5_radial_189_616)"/>
<path fill-rule="evenodd" clip-rule="evenodd" d="M7.09766 53.3869C7.09766 53.3869 18.8494 72.0058 36.0568 72.5133C52.265 72.9891 65.2379 68.9925 65.5551 71.2287L66.6177 67.5969C59.5286 69.6745 44.8587 40.3823 8.42984 51.1032L7.09766 53.3869Z" fill="url(#paint6_radial_189_616)"/>
<path fill-rule="evenodd" clip-rule="evenodd" d="M109.644 130.098C109.644 130.098 112.546 108.657 100.128 96.7939C87.7106 84.9311 75.5147 79.9355 76.8787 78.6033L73.7068 80.665C76.2126 79.2535 71.5182 112.986 107.233 131.018L109.644 130.098Z" fill="url(#paint7_radial_189_616)"/>
<path fill-rule="evenodd" clip-rule="evenodd" d="M33.8681 13.1677C33.8681 13.1677 32.1077 33.531 43.3837 46.4722C54.2315 58.8266 67.363 63.3624 66.6969 64.6629L69.8688 62.6011C66.5859 62.8549 72.66 29.2966 36.358 12.2637L33.8681 13.1677Z" fill="url(#paint8_radial_189_616)"/>
<path fill-rule="evenodd" clip-rule="evenodd" d="M62.9541 53.6406C62.9541 53.6406 64.54 64.4567 54.8817 66.0743C54.8817 66.0743 61.9867 74.1626 53.2958 79.7609C53.2958 79.7609 65.5074 77.3979 66.1894 86.8976C66.1894 86.8976 76.0539 80.9979 81.1606 89.895C81.1606 89.895 76.0698 78.4763 87.314 77.0807C87.314 77.0807 83.5236 71.1493 90.7555 63.7747C90.7555 63.7747 79.9553 67.0735 77.8619 56.638C77.9253 56.638 72.993 61.2372 62.9541 53.6406Z" fill="#F99329"/>
<path fill-rule="evenodd" clip-rule="evenodd" d="M67.9498 64.4092C67.9498 64.4092 68.5683 68.6753 64.7779 69.3097C64.7779 69.3097 67.585 72.4816 64.1753 74.7019C64.1753 74.7019 68.9331 73.782 69.2661 77.509C69.2661 77.509 73.1517 75.1935 75.1658 78.6984C75.1658 78.6984 73.1517 74.1944 77.5923 73.6552C77.5923 73.6552 76.0856 71.308 78.9403 68.4057C78.9403 68.4057 74.69 69.7062 73.8653 65.5986C73.8495 65.6621 71.8988 67.4066 67.9498 64.4092Z" fill="url(#paint9_linear_189_616)"/>
<path fill-rule="evenodd" clip-rule="evenodd" d="M91.0251 32.437C95.1327 21.1451 97.1785 15.1345 97.3688 10.2339C97.3688 7.06206 96.9565 6.68144 94.7838 9.21893C91.5009 13.041 88.7414 19.02 84.2056 29.836C76.6724 47.8205 75.6892 62.7917 72.2477 65.3451L73.7226 66.7565H75.7684C74.9279 62.4904 84.3483 50.7545 91.0251 32.437Z" fill="#F99329"/>
<path fill-rule="evenodd" clip-rule="evenodd" d="M95.0535 11.6453C95.0535 11.6453 83.9044 27.5997 75.3721 62.0462C75.3721 62.0462 91.4058 32.3575 95.0535 11.6453Z" fill="url(#paint10_linear_189_616)"/>
<path fill-rule="evenodd" clip-rule="evenodd" d="M50.2509 109.957C47.4436 117.354 46.0659 125.217 46.1909 133.128C46.1909 136.299 46.6033 136.664 48.776 134.143C54.2159 128.398 58.5588 121.706 61.5903 114.398C69.1235 96.4132 67.934 80.5698 71.3121 77.9213L69.8372 76.5256H67.7913C68.5843 80.8552 56.9118 91.6396 50.2509 109.957Z" fill="#F99329"/>
<path fill-rule="evenodd" clip-rule="evenodd" d="M48.4113 131.605C48.4113 131.605 62.7957 116.919 68.0609 81.2041C68.0609 81.2041 49.0932 109.735 48.4113 131.605Z" fill="url(#paint11_linear_189_616)"/>
<path fill-rule="evenodd" clip-rule="evenodd" d="M116.844 60.2383C124.18 57.2893 130.894 52.9852 136.637 47.5509C138.984 45.5209 138.968 44.8548 135.622 44.9658C127.717 44.8405 119.857 46.1738 112.435 48.8989C94.0861 55.5122 90.724 64.441 79.0515 66.3441V68.3741L80.4471 69.8649C96.1637 62.0621 98.8281 67.7398 116.844 60.2383Z" fill="#F99329"/>
<path fill-rule="evenodd" clip-rule="evenodd" d="M133.972 46.9482C133.972 46.9482 117.05 44.8231 87.1871 65.123C87.2347 65.123 117.447 61.2375 133.972 46.9482Z" fill="url(#paint12_linear_189_616)"/>
<path fill-rule="evenodd" clip-rule="evenodd" d="M26.6839 83.1073C19.342 86.0532 12.6218 90.3576 6.87562 95.7948C4.52844 97.8406 4.5443 98.4909 7.89062 98.3799C15.7947 98.5128 23.6553 97.1848 31.0769 94.4626C49.4262 87.8493 60.2422 76.2085 64.4608 77.0174V74.9715L63.0652 73.4966C60.5277 76.7636 44.6842 75.5424 26.6839 83.1073Z" fill="#F99329"/>
<path fill-rule="evenodd" clip-rule="evenodd" d="M9.49243 96.3182C9.49243 96.3182 30.1095 96.9843 59.9092 76.7002C59.9092 76.7636 26.1289 82.0289 9.49243 96.3182Z" fill="url(#paint13_linear_189_616)"/>
<path fill-rule="evenodd" clip-rule="evenodd" d="M31.2674 55.1473C19.6583 52.0547 13.4415 50.8018 8.42994 51.1031C5.25807 51.2776 4.92503 51.8168 7.65283 53.7516C13.8452 58.6751 20.8941 62.4119 28.4444 64.7739C47.0315 70.6735 62.7005 68.025 65.5552 71.2286L66.8239 69.6427L66.6178 67.6127C62.4785 68.8338 50.1241 60.1747 31.2674 55.1473Z" fill="#F99329"/>
<path fill-rule="evenodd" clip-rule="evenodd" d="M10.1268 53.1648C10.1268 53.1648 27.7148 64.076 62.0819 68.2787C62.0819 68.2787 32.4726 55.6388 10.1268 53.1648Z" fill="url(#paint14_linear_189_616)"/>
<path fill-rule="evenodd" clip-rule="evenodd" d="M92.5001 111.876C99.3196 121.772 103.205 128.005 107.186 131.018C109.66 132.89 110.358 132.731 109.501 129.432C108.28 124.532 104.743 117.284 98.6059 107.324C88.3132 90.8149 76.8787 82.8853 76.8787 78.6033L74.8645 78.9998L73.7068 80.665C77.5447 82.4729 81.4303 95.7948 92.5001 111.876Z" fill="#F99329"/>
<path fill-rule="evenodd" clip-rule="evenodd" d="M107.218 128.322C107.218 128.322 100.239 111.543 77.5289 83.1072C77.5289 83.1072 93.4993 111.781 107.218 128.322Z" fill="url(#paint15_linear_189_616)"/>
<path fill-rule="evenodd" clip-rule="evenodd" d="M52.8678 28.9796C48.4528 22.4236 42.8474 16.7537 36.3424 12.2639C33.8525 10.3925 33.1705 10.5352 34.0111 13.8498C35.5385 21.6072 38.4732 29.0194 42.6703 35.7198C52.963 52.2769 66.602 60.4445 66.6971 64.7265L68.7113 64.3459L69.8531 62.6648C65.9676 60.7934 63.9376 45.0451 52.8678 28.9796Z" fill="#F99329"/>
<path fill-rule="evenodd" clip-rule="evenodd" d="M36.2947 14.9124C36.2947 14.9124 39.9106 35.1488 65.9833 60.1431C65.9833 60.1748 53.7082 28.1707 36.2947 14.9124Z" fill="url(#paint16_linear_189_616)"/>
<g style="mix-blend-mode:multiply" opacity="0.5">
<g style="mix-blend-mode:multiply" opacity="0.5">
<path d="M96.4173 61.1105C96.1953 61.4912 95.8622 61.8401 95.9574 62.2524C96.0765 62.5578 96.2605 62.8338 96.4966 63.0612C97.0675 63.6639 97.8129 64.1397 98.4314 64.6472C98.8008 65.0385 99.2572 65.3374 99.7636 65.5194C100.027 65.5695 100.299 65.5369 100.544 65.4262C100.788 65.3155 100.992 65.132 101.128 64.9009C101.42 64.3318 101.55 63.693 101.502 63.055C101.454 62.4169 101.232 61.8044 100.858 61.285C100.474 60.8963 99.9998 60.6077 99.4781 60.4444C98.953 60.2902 98.3975 60.2703 97.8627 60.3867C97.3279 60.5031 96.8308 60.752 96.4173 61.1105V61.1105Z" fill="#E3987F"/>
</g>
<g style="mix-blend-mode:multiply" opacity="0.5">
<path d="M100.382 58.6365C100.031 58.1685 99.7919 57.6258 99.6843 57.0505C99.6843 56.6699 100.081 56.6699 100.35 56.8444C100.62 57.0188 101.064 58.4303 100.35 58.6682L100.382 58.6365Z" fill="#E3987F"/>
</g>
<g style="mix-blend-mode:multiply" opacity="0.5">
<path d="M94.2129 68.9448C93.6894 69.4499 93.2264 70.014 92.8331 70.6259C92.3732 71.3237 92.8331 71.752 93.3565 72.2119C94.6886 73.2269 96.7662 74.8445 98.5425 73.7978C99.1297 73.398 99.5377 72.7849 99.6799 72.0889C99.822 71.3929 99.6871 70.6689 99.3037 70.0709C98.6381 69.4672 97.8307 69.0417 96.9565 68.8338C96.5163 68.6621 96.0453 68.5833 95.5731 68.6024C95.1009 68.6215 94.6378 68.7381 94.2129 68.9448Z" fill="#E3987F"/>
</g>
<g style="mix-blend-mode:multiply" opacity="0.5">
<path d="M67.823 101.266C67.9657 101.028 68.156 100.41 68.3939 100.235C68.6148 100.166 68.8444 100.129 69.0758 100.124C69.4382 100.049 69.8149 100.088 70.1543 100.235C70.4054 100.437 70.58 100.718 70.6492 101.033C70.7185 101.347 70.6781 101.676 70.5349 101.964C70.3922 102.297 70.2653 102.979 69.9005 103.138C69.6505 103.199 69.3893 103.199 69.1393 103.138C68.4573 102.979 68.1084 102.329 67.5533 102.059L67.823 101.266Z" fill="#E3987F"/>
</g>
<g style="mix-blend-mode:multiply" opacity="0.5">
<path d="M32.9959 54.5606C33.1228 54.3069 33.3131 53.7042 33.5668 53.5298C33.7856 53.4518 34.0166 53.4142 34.2488 53.4188C34.6111 53.3435 34.9878 53.3823 35.3272 53.5298C35.5702 53.7379 35.7344 54.0232 35.7921 54.3379C35.8498 54.6526 35.7977 54.9776 35.6444 55.2584C35.5175 55.5915 35.3907 56.2734 35.01 56.432C34.7666 56.503 34.508 56.503 34.2646 56.432C33.5827 56.2893 33.2338 55.6391 32.6787 55.3695L32.9959 54.5606Z" fill="#E3987F"/>
</g>
<g style="mix-blend-mode:multiply" opacity="0.5">
<path d="M38.293 90.688C37.4728 91.3553 36.7565 92.141 36.1679 93.0194C35.8348 93.511 35.3115 94.4308 35.708 95.0335C36.2198 95.6004 36.9064 95.98 37.6586 96.1119C38.3395 96.3757 39.076 96.463 39.7997 96.3657C40.3342 96.3223 40.843 96.1177 41.2587 95.7789C41.6951 95.2304 41.95 94.5598 41.9882 93.8599C41.9769 93.34 41.8379 92.8308 41.5835 92.3773C41.329 91.9237 40.967 91.5397 40.5292 91.259C40.2754 91.037 38.8164 90.1647 38.293 90.688Z" fill="#E3987F"/>
</g>
<g style="mix-blend-mode:multiply" opacity="0.5">
<path d="M88.234 68.0411C88.0437 67.6922 87.4252 66.8516 87.9802 66.4551C88.2816 66.2331 88.9001 66.7089 89.138 66.8833C89.3759 67.0578 89.8041 67.4701 89.7248 67.7397C89.6455 68.0093 88.6939 68.0886 88.5353 68.0411H88.234Z" fill="#E3987F"/>
</g>
<g style="mix-blend-mode:multiply" opacity="0.5">
<path d="M98.7328 102.646C97.9081 103.042 96.1001 103.835 97.02 104.961C97.7079 105.607 98.5396 106.08 99.4464 106.341C99.8953 106.581 100.388 106.727 100.895 106.771C101.402 106.814 101.913 106.755 102.396 106.595C102.642 106.423 102.85 106.204 103.009 105.95C103.168 105.696 103.274 105.412 103.322 105.116C103.369 104.821 103.356 104.518 103.285 104.227C103.213 103.936 103.083 103.663 102.904 103.423C102.571 102.876 102.057 102.464 101.451 102.258C100.845 102.052 100.186 102.066 99.5892 102.297L98.7328 102.646Z" fill="#E3987F"/>
</g>
<g style="mix-blend-mode:multiply" opacity="0.5">
<path d="M118.113 52.4353C117.78 51.8803 117.399 51.4045 117.716 50.7542C118.033 50.104 118.668 50.326 119.112 50.6591C119.325 50.8 119.489 51.0044 119.58 51.2434C119.671 51.4825 119.685 51.744 119.619 51.9913C119.493 52.6415 119.08 52.8001 118.446 52.7208L118.113 52.4353Z" fill="#E3987F"/>
</g>
<g style="mix-blend-mode:multiply" opacity="0.5">
<path d="M108.851 65.8049C108.597 65.9477 107.471 66.3124 107.804 66.7406C107.931 66.8992 108.454 66.9944 108.629 67.0737C108.803 67.153 109.152 67.2957 109.422 67.375C109.691 67.4543 109.993 67.375 109.945 66.9785C109.899 66.7579 109.793 66.5541 109.639 66.3892C109.486 66.2243 109.29 66.1045 109.073 66.0428L108.851 65.8049Z" fill="#E3987F"/>
</g>
<g style="mix-blend-mode:multiply" opacity="0.5">
<path d="M123.822 62.0303C123.568 62.173 122.442 62.5219 122.775 62.9501C122.886 63.1087 123.426 63.2197 123.584 63.2832L124.377 63.6003C124.742 63.7114 124.948 63.6003 124.901 63.2039C124.859 62.981 124.755 62.7745 124.601 62.6088C124.446 62.443 124.248 62.3248 124.028 62.2682L123.822 62.0303Z" fill="#E3987F"/>
</g>
<g style="mix-blend-mode:multiply" opacity="0.5">
<path d="M61.6855 41.1595C61.511 40.7313 61.0829 39.9225 61.3366 39.3674C61.5903 38.8123 62.0027 39.1771 62.2882 39.3674C62.4579 39.5175 62.5959 39.7001 62.694 39.9044C62.792 40.1087 62.8482 40.3305 62.8591 40.5569C62.8591 41.1595 62.6371 41.1119 62.2089 41.2864L61.6855 41.1595Z" fill="#E3987F"/>
</g>
<g style="mix-blend-mode:multiply" opacity="0.5">
<path d="M96.8455 58.8901C96.8455 58.8901 95.434 60.032 96.1636 60.2699C96.5669 60.2574 96.9647 60.1715 97.3372 60.0161C97.7505 59.9423 98.1413 59.7741 98.479 59.5245C98.8121 59.2707 99.0341 59.0329 98.7169 58.6839C98.3997 58.335 97.6861 58.4936 97.131 58.6839L96.8455 58.8901Z" fill="#E3987F"/>
</g>
<g style="mix-blend-mode:multiply" opacity="0.5">
<path d="M101.318 75.1776C101.318 74.4639 101.191 74.0357 101.588 73.4806C102.014 72.8809 102.619 72.4312 103.316 72.196C103.914 71.979 104.559 71.9264 105.183 72.0435C105.808 72.1607 106.39 72.4434 106.869 72.8621C107.519 73.583 107.87 74.5242 107.852 75.4948C107.852 76.0657 107.852 76.5732 107.979 77.0807C107.979 77.3979 108.201 77.6199 108.185 77.9054C108.198 77.9173 108.209 77.9319 108.217 77.9483C108.224 77.9647 108.228 77.9825 108.228 78.0005C108.228 78.0185 108.224 78.0363 108.217 78.0527C108.209 78.0691 108.198 78.0838 108.185 78.0957C108.06 78.1736 107.919 78.2223 107.773 78.2384C107.248 78.3333 106.711 78.3333 106.187 78.2384C105.305 78.1533 104.465 77.8237 103.76 77.2869C102.826 76.7365 101.998 76.022 101.318 75.1776V75.1776Z" fill="#E3987F"/>
</g>
<g style="mix-blend-mode:multiply" opacity="0.5">
<path d="M114.941 56.5588C114.497 56.7016 113.482 56.987 113.355 57.6214C113.228 58.2558 114.418 58.3509 114.814 58.3034C115.211 58.2558 115.591 58.1448 115.671 57.7324C115.75 57.3201 115.353 57.0188 114.957 56.8602L114.941 56.5588Z" fill="#E3987F"/>
</g>
<g style="mix-blend-mode:multiply" opacity="0.5">
<path d="M85.2523 111.21C85.4054 110.891 85.5224 110.556 85.6012 110.211C85.6012 109.814 85.6012 109.339 85.9343 109.053C86.0023 108.967 86.0943 108.903 86.1988 108.869C86.3033 108.835 86.4154 108.833 86.5211 108.863C87.0838 109.001 87.6198 109.231 88.107 109.545C88.538 109.784 88.9073 110.121 89.1854 110.528C89.3916 110.909 89.0903 111.162 88.7414 111.321C88.44 111.492 88.1135 111.615 87.774 111.686C86.9065 111.746 86.038 111.583 85.2523 111.21V111.21Z" fill="#E3987F"/>
</g>
<g style="mix-blend-mode:multiply" opacity="0.5">
<path d="M85.6171 105.628C85.2365 105.85 84.8717 106.088 84.951 106.595C84.9664 106.692 85.0008 106.785 85.0523 106.869C85.1037 106.952 85.1712 107.025 85.2507 107.082C85.3303 107.14 85.4204 107.181 85.516 107.203C85.6115 107.226 85.7105 107.229 85.8074 107.214C86.077 107.214 86.1246 106.912 86.1405 106.659C86.1577 106.524 86.1237 106.388 86.0453 106.278C86.0453 106.183 85.9343 105.992 85.8233 105.945L85.6171 105.628Z" fill="#E3987F"/>
</g>
<g style="mix-blend-mode:multiply" opacity="0.5">
<path d="M95.5609 87.6749C95.2437 87.9128 94.8155 88.1824 94.9424 88.6582C94.9619 88.7663 95.0221 88.8628 95.1106 88.9277C95.1992 88.9926 95.3093 89.0211 95.4182 89.0071C95.7575 88.847 96.0397 88.5869 96.227 88.2617C96.2775 88.1233 96.2782 87.9716 96.229 87.8327C96.1798 87.6938 96.0838 87.5763 95.9574 87.5005L95.5609 87.6749Z" fill="#E3987F"/>
</g>
<g style="mix-blend-mode:multiply" opacity="0.5">
<path d="M118.636 76.1292C118.525 76.1292 118.192 76.2878 118.097 76.4306C117.991 76.6308 117.936 76.8542 117.938 77.0808C117.938 77.509 118.525 77.5724 118.858 77.4456C119.01 77.376 119.139 77.2643 119.229 77.1237C119.319 76.9831 119.367 76.8196 119.367 76.6526C119.367 76.4856 119.319 76.3221 119.229 76.1815C119.139 76.0409 119.01 75.9292 118.858 75.8596L118.636 76.1292Z" fill="#E3987F"/>
</g>
<g style="mix-blend-mode:multiply" opacity="0.5">
<path d="M113.91 77.5406C113.733 77.5005 113.549 77.5005 113.371 77.5406C113.228 77.6199 113.101 77.8261 112.99 77.9371C112.879 78.0481 112.562 78.2702 112.721 78.5398C112.809 78.6299 112.916 78.7004 113.033 78.7468C113.151 78.7933 113.277 78.8146 113.403 78.8094C113.759 78.8738 114.126 78.8409 114.465 78.7142C114.797 78.4862 115.069 78.1816 115.258 77.8261C115.297 77.7341 115.309 77.633 115.292 77.5347C115.275 77.4363 115.23 77.3449 115.163 77.271C115.072 77.1339 114.941 77.0274 114.788 76.9652C114.636 76.9031 114.468 76.888 114.307 76.9221L113.91 77.5406Z" fill="#E3987F"/>
</g>
<g style="mix-blend-mode:multiply" opacity="0.5">
<path d="M45.6992 44.8704C45.5565 45.2986 45.3503 45.8853 45.6992 46.266C45.7451 46.3144 45.8005 46.353 45.8618 46.3794C45.9232 46.4058 45.9892 46.4194 46.056 46.4194C46.1228 46.4194 46.1889 46.4058 46.2502 46.3794C46.3116 46.353 46.3669 46.3144 46.4129 46.266C46.5362 46.1435 46.6307 45.9952 46.6897 45.8317C46.7487 45.6682 46.7706 45.4937 46.7539 45.3207C46.7372 45.1477 46.6823 44.9806 46.5932 44.8314C46.504 44.6822 46.3829 44.5547 46.2384 44.458L45.6992 44.8704Z" fill="#E3987F"/>
</g>
<g style="mix-blend-mode:multiply" opacity="0.5">
<path d="M74.8804 40.6996C74.8804 41.1278 74.8804 41.445 75.2769 41.667C75.4931 41.7652 75.7346 41.7935 75.9676 41.748C76.2007 41.7026 76.4139 41.5855 76.5773 41.4133C76.7325 41.3139 76.8536 41.1696 76.9245 40.9995C76.9953 40.8295 77.0126 40.6418 76.9738 40.4617C76.8311 39.9383 76.2126 39.7956 75.7526 39.7163L74.8804 40.6996Z" fill="#E3987F"/>
</g>
<g style="mix-blend-mode:multiply" opacity="0.5">
<path d="M122.537 47.5348C122.061 47.6324 121.625 47.8699 121.285 48.2168C121.048 48.4793 120.869 48.7887 120.76 49.1247C120.651 49.4608 120.613 49.816 120.65 50.1675C120.73 50.8898 121.056 51.5627 121.573 52.0737C122.089 52.5847 122.766 52.9027 123.489 52.9746C123.878 52.9312 124.254 52.8039 124.589 52.6017C124.924 52.3994 125.212 52.1269 125.432 51.8029C125.652 51.4789 125.799 51.111 125.864 50.7247C125.928 50.3384 125.908 49.9427 125.804 49.5648C125.465 48.8276 124.913 48.2089 124.219 47.7886C123.991 47.5911 123.713 47.4624 123.415 47.4174C123.117 47.3725 122.813 47.4132 122.537 47.5348V47.5348Z" fill="#E3987F"/>
</g>
<g style="mix-blend-mode:multiply" opacity="0.5">
<path d="M125.234 43.8872C124.964 44.0127 124.73 44.2035 124.552 44.4423C124.373 44.6995 124.224 44.9762 124.108 45.267C124.058 45.3984 124.04 45.5396 124.054 45.6793C124.068 45.8191 124.115 45.9535 124.191 46.0721C124.266 46.1906 124.368 46.2899 124.489 46.3621C124.609 46.4344 124.745 46.4775 124.885 46.4881C125.078 46.5352 125.279 46.5352 125.472 46.4881C125.694 46.393 125.789 45.9965 125.805 45.7903C125.833 45.511 125.777 45.2296 125.646 44.9815C125.646 44.8546 125.377 44.474 125.218 44.4106L125.234 43.8872Z" fill="#E3987F"/>
</g>
<g style="mix-blend-mode:multiply" opacity="0.5">
<path d="M124.869 55.9719C124.701 55.8894 124.517 55.8464 124.33 55.8464C124.143 55.8464 123.958 55.8894 123.791 55.9719C123.396 56.1291 123.07 56.4214 122.871 56.7966C122.839 57.0085 122.851 57.2246 122.906 57.4317C122.96 57.6389 123.056 57.8329 123.188 58.0019C123.488 58.4109 123.872 58.7515 124.314 59.0011C124.439 59.0817 124.585 59.1245 124.734 59.1245C124.883 59.1245 125.029 59.0817 125.154 59.0011C125.28 58.9133 125.382 58.7972 125.454 58.6621C125.526 58.527 125.564 58.3769 125.567 58.224C125.662 57.8386 125.662 57.4357 125.567 57.0504C125.377 56.6647 125.143 56.3028 124.869 55.9719V55.9719Z" fill="#E3987F"/>
</g>
<g style="mix-blend-mode:multiply" opacity="0.5">
<path d="M84.0155 34.0703L83.4604 34.2448C83.372 34.3519 83.2708 34.4478 83.1591 34.5302C82.6683 34.9608 82.1372 35.3432 81.5731 35.6721C81.1652 35.9695 80.6922 36.1652 80.1934 36.243C79.6929 36.2946 79.188 36.2068 78.7343 35.9893C78.141 35.6193 77.6566 35.0983 77.3306 34.4798C77.0046 33.8612 76.8487 33.1671 76.8788 32.4685C76.9314 31.6918 77.1917 30.9435 77.6325 30.3018C78.0734 29.6602 78.6784 29.1487 79.3846 28.8209C79.9514 28.5695 80.5645 28.4397 81.1846 28.4397C81.8046 28.4397 82.4178 28.5695 82.9846 28.8209C83.4511 28.9769 83.8784 29.2321 84.237 29.5688C84.5956 29.9055 84.8771 30.3158 85.0622 30.7716C85.4428 31.9927 84.412 32.8174 84.0155 34.0703Z" fill="#E3987F"/>
</g>
<g style="mix-blend-mode:multiply" opacity="0.5">
<path d="M95.1327 35.5293C94.8155 35.339 94.6728 35.1487 94.3556 35.2597C94.0296 35.3775 93.7284 35.555 93.4675 35.783C93.2613 35.9892 93.1344 36.1478 93.3564 36.3857C93.6032 36.6166 93.9118 36.7709 94.2446 36.8298C94.5935 36.8298 95.2278 36.8298 95.4657 36.5602C95.5063 36.5035 95.5344 36.4388 95.548 36.3704C95.5617 36.3021 95.5607 36.2316 95.545 36.1637C95.5402 36.0159 95.4906 35.8731 95.4028 35.7541C95.315 35.6352 95.1932 35.5457 95.0534 35.4976L95.1327 35.5293Z" fill="#E3987F"/>
</g>
<g style="mix-blend-mode:multiply" opacity="0.5">
<path d="M36.3739 67.7871C36.1945 67.9087 35.9962 67.9998 35.7871 68.0567C35.4699 68.0567 35.1527 68.0567 34.8356 68.1677C34.324 68.2614 33.8473 68.4916 33.4558 68.8338C33.1545 69.1669 32.8531 69.5792 33.0276 70.0233C33.1119 70.2186 33.2402 70.3919 33.4025 70.5294C33.5648 70.667 33.7568 70.7652 33.9633 70.8162C34.3518 70.9434 34.765 70.976 35.1686 70.9114C35.6084 70.8963 36.0292 70.728 36.3581 70.4356C36.4614 70.2872 36.533 70.119 36.5685 69.9417C36.604 69.7643 36.6025 69.5815 36.5642 69.4048C36.5325 69.1669 36.5166 68.5325 36.3739 67.7871Z" fill="#E3987F"/>
</g>
<g style="mix-blend-mode:multiply" opacity="0.5">
<path d="M86.8066 63.6637C86.5687 63.8064 86.3308 63.8698 86.2991 64.1394C86.2755 64.3653 86.3378 64.5918 86.4735 64.7738C86.7384 64.9888 87.0496 65.1394 87.3826 65.2137C87.7156 65.288 88.0613 65.284 88.3925 65.202C88.7731 65.1227 89.1696 64.9641 89.122 64.5042C89.122 63.7112 88.1229 63.5685 87.5361 63.6002L86.8066 63.6637Z" fill="#E3987F"/>
</g>
<g style="mix-blend-mode:multiply" opacity="0.5">
<path d="M91.8657 45.9489C91.7855 47.0749 91.34 48.144 90.597 48.9939C90.3204 49.3841 89.9071 49.6559 89.4393 49.7551C89.0191 49.7361 88.6197 49.5673 88.3132 49.2793C87.8325 48.9499 87.4271 48.5224 87.1236 48.0249C86.8202 47.5273 86.6257 46.9711 86.5529 46.3929C86.5076 45.7697 86.6109 45.1447 86.8542 44.5691C87.1868 43.9786 87.6095 43.4435 88.1071 42.9832C88.8049 42.2854 89.8516 41.3973 90.93 41.651C91.3443 41.7279 91.7157 41.9549 91.9732 42.2884C92.2307 42.622 92.3561 43.0387 92.3257 43.459C92.2883 43.9912 92.2195 44.5208 92.1195 45.0449C92.0402 45.5365 92.056 45.8062 91.8657 45.9489Z" fill="#E3987F"/>
</g>
<g style="mix-blend-mode:multiply" opacity="0.5">
<path d="M85.8708 66.0426C85.5695 66.0426 85.284 66.0426 84.9827 66.0426C84.5794 65.9742 84.1649 66.047 83.8091 66.2488C83.1906 66.7087 84.1104 67.47 84.5069 67.6761C84.9034 67.8823 85.6488 68.2312 86.0928 67.914C86.5369 67.5968 86.0928 66.8197 85.7915 66.5343L85.8708 66.0426Z" fill="#E3987F"/>
</g>
<g style="mix-blend-mode:multiply" opacity="0.5">
<path d="M79.6066 62.95C79.2716 63.1481 78.9759 63.4061 78.7343 63.7112C78.177 64.3533 77.7706 65.1119 77.5449 65.9315C77.3259 66.6823 77.3822 67.4865 77.7035 68.1994C77.9119 68.6695 78.2018 69.099 78.5599 69.4682C78.929 69.9031 79.4146 70.2237 79.9596 70.3922C80.5046 70.5608 81.0863 70.5703 81.6366 70.4197C82.4297 70.0128 83.0982 69.3991 83.5714 68.6435C83.765 68.3553 83.9769 68.0798 84.2058 67.8188C84.4652 67.6017 84.6945 67.3511 84.8877 67.0734C85.2842 66.3915 84.6974 65.4875 84.1741 65.0276C83.6507 64.5676 83.5238 64.4249 83.1908 64.1077C82.8577 63.7905 82.382 63.4099 81.9855 63.0769C81.8197 62.9049 81.6197 62.7695 81.3985 62.6793C81.1773 62.5892 80.9396 62.5463 80.7009 62.5535C80.0506 62.5852 79.5907 62.8073 79.6066 62.95Z" fill="#E3987F"/>
</g>
<g style="mix-blend-mode:multiply" opacity="0.5">
<path d="M79.3528 67.2479C79.1033 67.2508 78.8603 67.3281 78.655 67.4699C78.5019 67.6074 78.3872 67.7823 78.3219 67.9774C78.297 68.074 78.2926 68.1746 78.309 68.273C78.3254 68.3713 78.3622 68.4651 78.4171 68.5484C78.5757 68.7387 78.877 68.6752 79.0832 68.5484C79.2893 68.4215 80.1616 68.2946 80.2409 67.8506C80.2525 67.5499 80.1632 67.254 79.9872 67.01L79.3528 67.2479Z" fill="#E3987F"/>
</g>
</g>
<path d="M71.7085 28.9637L70.2653 28.2817C70.5507 27.7108 70.7728 27.124 71.0106 26.5213C71.3242 25.6724 71.6951 24.8458 72.1208 24.0473C73.0724 22.271 74.0556 20.5741 75.1341 18.8296C75.2871 18.5736 75.4248 18.3089 75.5464 18.0366C75.6794 17.7072 75.8385 17.389 76.0222 17.085C76.2772 16.6875 76.5636 16.3109 76.8786 15.959L77.3385 15.3405C78.7972 13.3043 80.4489 11.4135 82.2708 9.69459C84.2762 7.8817 86.4359 6.24728 88.7255 4.80992L89.2806 4.46101C91.3106 3.12883 95.1644 0.638916 98.7327 0.638916V2.22485C95.5609 2.22485 92.0242 4.54031 90.0894 5.79319L89.566 6.15796C87.3502 7.54693 85.2689 9.13978 83.3492 10.9158C81.5809 12.5495 79.9865 14.3618 78.5914 16.3238C78.4328 16.5458 78.2425 16.7678 78.068 16.9899C77.8112 17.2979 77.5728 17.6209 77.3544 17.9573C77.2117 18.2083 77.0846 18.4678 76.9737 18.7344C76.8152 19.0674 76.6566 19.4005 76.4663 19.7177C75.4037 21.4305 74.4363 23.1116 73.5006 24.8402C73.114 25.5845 72.7749 26.3526 72.4856 27.1398C72.2477 27.7266 71.9939 28.361 71.7085 28.9637Z" fill="#421212"/>
<path d="M102.047 20.5265C102.047 17.1485 100.366 6.01524 98.035 1.81252L99.4307 1.05127C101.905 5.53946 103.586 16.9106 103.633 20.5107L102.047 20.5265Z" fill="#421212"/>
<path d="M18.6908 104.343C16.036 104.331 13.3857 104.124 10.7611 103.725C8.01859 103.253 5.38184 102.297 2.97421 100.902C2.82827 100.817 2.67418 100.748 2.51429 100.695C1.87992 100.442 0.753906 99.9976 0.753906 98.8398C0.830362 97.9717 1.1131 97.1343 1.57859 96.3975L1.81648 95.9059C2.47098 94.504 3.2457 93.1616 4.13194 91.8935C4.78057 90.8211 5.58799 89.8533 6.5267 89.0229C7.06591 88.5789 7.57341 88.0872 8.11263 87.6114C8.77675 86.9559 9.47557 86.3365 10.2061 85.7559C10.7136 85.3594 11.2052 84.9471 11.6968 84.5189C12.4474 83.8661 13.2308 83.2521 14.044 82.6792L14.5991 82.3144C15.5402 81.7003 16.4457 81.0331 17.311 80.3162L18.3419 81.5215C17.4278 82.281 16.4693 82.9853 15.4714 83.6308L14.9321 83.9955C14.1686 84.5342 13.4329 85.1112 12.7277 85.7242C12.2202 86.1682 11.6968 86.6123 11.1418 87.0088C10.4557 87.5549 9.7992 88.1372 9.1752 88.7533C8.65185 89.2608 8.11263 89.7683 7.58927 90.2441C6.77954 90.9265 6.07892 91.7288 5.5117 92.623C4.64219 93.8485 3.88324 95.1488 3.24382 96.5085C3.16397 96.6982 3.07397 96.8835 2.97421 97.0636C2.68672 97.5604 2.46798 98.0939 2.32398 98.6495C2.32398 98.8081 2.7839 98.9826 3.10108 99.1253C3.3125 99.2026 3.51905 99.2927 3.7196 99.3949C5.95365 100.732 8.4078 101.661 10.9673 102.139C15.3639 102.849 19.8396 102.923 24.2574 102.361L25.1614 102.218C26.5887 102.028 27.9209 101.837 29.269 101.52L29.6972 101.393C30.1411 101.199 30.6247 101.112 31.1086 101.139L30.9183 102.725C30.6779 102.735 30.4413 102.789 30.2205 102.884L29.6179 103.074C28.2064 103.391 26.779 103.598 25.3834 103.788L24.4794 103.931C22.5617 104.201 20.6275 104.339 18.6908 104.343Z" fill="#421212"/>
<path d="M34.1855 102.139L33.8683 100.553C35.0062 100.293 36.1286 99.9701 37.2305 99.5852C38.6705 99.0552 40.1572 98.6623 41.6711 98.4116L41.7504 98.9191L42.6068 99.0936L42.4482 99.9024H41.8931C40.4761 100.14 39.0848 100.512 37.738 101.013C36.5769 101.457 35.3907 101.833 34.1855 102.139V102.139Z" fill="#421212"/>
<defs>
<radialGradient id="paint0_radial_189_616" cx="0" cy="0" r="1" gradientUnits="userSpaceOnUse" gradientTransform="translate(115.988 91.9771) rotate(106.26) scale(16.0021 40.8628)">
<stop offset="0.66" stop-color="#EC6B20"/>
<stop offset="0.79" stop-color="#EB6820"/>
<stop offset="0.87" stop-color="#E86022"/>
<stop offset="0.93" stop-color="#E25225"/>
<stop offset="0.98" stop-color="#D93E29"/>
<stop offset="0.99" stop-color="#D93D29"/>
</radialGradient>
<linearGradient id="paint1_linear_189_616" x1="108.408" y1="79.0512" x2="106.493" y2="85.6128" gradientUnits="userSpaceOnUse">
<stop stop-color="#AE2C20"/>
<stop offset="0.99" stop-color="#E05E29"/>
</linearGradient>
<radialGradient id="paint2_radial_189_616" cx="0" cy="0" r="1" gradientUnits="userSpaceOnUse" gradientTransform="translate(531.561 2437.7) rotate(21.1613) scale(274.67 1488.98)">
<stop offset="0.66" stop-color="#EC6B20"/>
<stop offset="0.79" stop-color="#EB6820"/>
<stop offset="0.87" stop-color="#E86022"/>
<stop offset="0.93" stop-color="#E25225"/>
<stop offset="0.98" stop-color="#D93E29"/>
<stop offset="0.99" stop-color="#D93D29"/>
</radialGradient>
<radialGradient id="paint3_radial_189_616" cx="0" cy="0" r="1" gradientUnits="userSpaceOnUse" gradientTransform="translate(23625.3 -6901.57) rotate(-158.839) scale(273.692 1485.61)">
<stop offset="0.66" stop-color="#EC6B20"/>
<stop offset="0.79" stop-color="#EB6820"/>
<stop offset="0.87" stop-color="#E86022"/>
<stop offset="0.93" stop-color="#E25225"/>
<stop offset="0.98" stop-color="#D93E29"/>
<stop offset="0.99" stop-color="#D93D29"/>
</radialGradient>
<radialGradient id="paint4_radial_189_616" cx="0" cy="0" r="1" gradientUnits="userSpaceOnUse" gradientTransform="translate(14615.1 -11900.3) rotate(68.8387) scale(577.137 704.29)">
<stop offset="0.66" stop-color="#EC6B20"/>
<stop offset="0.79" stop-color="#EB6820"/>
<stop offset="0.87" stop-color="#E86022"/>
<stop offset="0.93" stop-color="#E25225"/>
<stop offset="0.98" stop-color="#D93E29"/>
<stop offset="0.99" stop-color="#D93D29"/>
</radialGradient>
<radialGradient id="paint5_radial_189_616" cx="0" cy="0" r="1" gradientUnits="userSpaceOnUse" gradientTransform="translate(35242.4 22481.6) rotate(-111.161) scale(575.989 678.478)">
<stop offset="0.66" stop-color="#EC6B20"/>
<stop offset="0.79" stop-color="#EB6820"/>
<stop offset="0.87" stop-color="#E86022"/>
<stop offset="0.93" stop-color="#E25225"/>
<stop offset="0.98" stop-color="#D93E29"/>
<stop offset="0.99" stop-color="#D93D29"/>
</radialGradient>
<radialGradient id="paint6_radial_189_616" cx="0" cy="0" r="1" gradientUnits="userSpaceOnUse" gradientTransform="translate(20128.3 27482.2) rotate(-73.7398) scale(597.581 610.622)">
<stop offset="0.66" stop-color="#EC6B20"/>
<stop offset="0.79" stop-color="#EB6820"/>
<stop offset="0.87" stop-color="#E86022"/>
<stop offset="0.93" stop-color="#E25225"/>
<stop offset="0.98" stop-color="#D93E29"/>
<stop offset="0.99" stop-color="#D93D29"/>
</radialGradient>
<radialGradient id="paint7_radial_189_616" cx="0" cy="0" r="1" gradientUnits="userSpaceOnUse" gradientTransform="translate(36205.3 16540.7) rotate(146.78) scale(363.766 1341.93)">
<stop offset="0.66" stop-color="#EC6B20"/>
<stop offset="0.79" stop-color="#EB6820"/>
<stop offset="0.87" stop-color="#E86022"/>
<stop offset="0.93" stop-color="#E25225"/>
<stop offset="0.98" stop-color="#D93E29"/>
<stop offset="0.99" stop-color="#D93D29"/>
</radialGradient>
<radialGradient id="paint8_radial_189_616" cx="0" cy="0" r="1" gradientUnits="userSpaceOnUse" gradientTransform="translate(24066.5 42503.9) rotate(-33.22) scale(362.447 1341.52)">
<stop offset="0.66" stop-color="#EC6B20"/>
<stop offset="0.79" stop-color="#EB6820"/>
<stop offset="0.87" stop-color="#E86022"/>
<stop offset="0.93" stop-color="#E25225"/>
<stop offset="0.98" stop-color="#D93E29"/>
<stop offset="0.99" stop-color="#D93D29"/>
</radialGradient>
<linearGradient id="paint9_linear_189_616" x1="390.767" y1="866.115" x2="507.622" y2="911.349" gradientUnits="userSpaceOnUse">
<stop stop-color="#AE2C20"/>
<stop offset="0.99" stop-color="#E05E29"/>
</linearGradient>
<linearGradient id="paint10_linear_189_616" x1="513.065" y1="1304.33" x2="557.726" y2="1321.62" gradientUnits="userSpaceOnUse">
<stop stop-color="#AE2C20"/>
<stop offset="0.99" stop-color="#E05E29"/>
</linearGradient>
<linearGradient id="paint11_linear_189_616" x1="14749.7" y1="-20.5562" x2="14671" y2="-51.0447" gradientUnits="userSpaceOnUse">
<stop stop-color="#AE2C20"/>
<stop offset="0.99" stop-color="#E05E29"/>
</linearGradient>
<linearGradient id="paint12_linear_189_616" x1="2394.24" y1="-6192.18" x2="2467.39" y2="-6003.77" gradientUnits="userSpaceOnUse">
<stop stop-color="#AE2C20"/>
<stop offset="0.99" stop-color="#E05E29"/>
</linearGradient>
<linearGradient id="paint13_linear_189_616" x1="17415.5" y1="25060.5" x2="17336.8" y2="24858" gradientUnits="userSpaceOnUse">
<stop stop-color="#AE2C20"/>
<stop offset="0.99" stop-color="#E05E29"/>
</linearGradient>
<linearGradient id="paint14_linear_189_616" x1="1240.11" y1="19279.1" x2="1278.68" y2="19146.9" gradientUnits="userSpaceOnUse">
<stop stop-color="#AE2C20"/>
<stop offset="0.99" stop-color="#E05E29"/>
</linearGradient>
<linearGradient id="paint15_linear_189_616" x1="20552.3" y1="-163.722" x2="20512.1" y2="-137.372" gradientUnits="userSpaceOnUse">
<stop stop-color="#AE2C20"/>
<stop offset="0.99" stop-color="#E05E29"/>
</linearGradient>
<linearGradient id="paint16_linear_189_616" x1="6934.79" y1="15482.3" x2="7041.83" y2="15412.1" gradientUnits="userSpaceOnUse">
<stop stop-color="#AE2C20"/>
<stop offset="0.99" stop-color="#E05E29"/>
</linearGradient>
</defs>
</svg>
