<svg width="625" height="510" viewBox="0 0 625 510" fill="none" xmlns="http://www.w3.org/2000/svg">
<g style="mix-blend-mode:multiply" opacity="0.3">
<path d="M517.968 78.5172C510.004 78.5172 502.218 76.1555 495.596 71.7308C488.974 67.306 483.813 61.017 480.765 53.659C477.717 46.3009 476.92 38.2043 478.474 30.3931C480.028 22.5818 483.863 15.4067 489.494 9.7751C495.126 4.1435 502.301 0.308321 510.112 -1.24544C517.924 -2.79919 526.02 -2.00175 533.378 1.04605C540.736 4.09386 547.025 9.25513 551.45 15.8772C555.875 22.4993 558.236 30.2847 558.236 38.249C558.23 48.9269 553.986 59.1658 546.435 66.7163C538.885 74.2667 528.646 78.5112 517.968 78.5172ZM517.968 8.38721C512.078 8.38723 506.321 10.1329 501.423 13.4037C496.525 16.6745 492.706 21.3237 490.449 26.7639C488.192 32.204 487.598 38.1911 488.742 43.9687C489.886 49.7463 492.717 55.0552 496.877 59.2246C501.037 63.3941 506.339 66.237 512.114 67.3943C517.889 68.5515 523.878 67.9712 529.323 65.7266C534.768 63.4819 539.426 59.6737 542.708 54.7831C545.99 49.8924 547.749 44.1388 547.762 38.249C547.75 30.3508 544.607 22.7796 539.022 17.1947C533.438 11.6099 525.866 8.46704 517.968 8.45507V8.38721Z" fill="#FF7C57"/>
</g>
<g style="mix-blend-mode:multiply" opacity="0.3">
<path d="M517.968 52.9537C515.06 52.9537 512.217 52.0912 509.799 50.4755C507.381 48.8597 505.496 46.5631 504.383 43.8762C503.27 41.1893 502.979 38.2327 503.546 35.3802C504.113 32.5278 505.514 29.9077 507.57 27.8512C509.627 25.7947 512.247 24.3942 515.099 23.8269C517.952 23.2595 520.908 23.5507 523.595 24.6636C526.282 25.7766 528.579 27.6613 530.195 30.0795C531.81 32.4977 532.673 35.3407 532.673 38.249C532.667 42.1471 531.116 45.8838 528.359 48.6401C525.603 51.3965 521.866 52.9477 517.968 52.9537ZM517.968 27.0508C515.758 27.0509 513.598 27.7049 511.759 28.9305C509.92 30.156 508.484 31.8983 507.634 33.9379C506.783 35.9775 506.555 38.2233 506.978 40.3924C507.401 42.5615 508.456 44.5569 510.011 46.1274C511.566 47.6979 513.55 48.7732 515.715 49.218C517.88 49.6628 520.128 49.4571 522.176 48.6269C524.224 47.7966 525.98 46.3789 527.224 44.5523C528.468 42.7258 529.144 40.5719 529.166 38.3621C529.166 35.3817 527.99 32.5216 525.893 30.4035C523.797 28.2855 520.948 27.0806 517.968 27.0508Z" fill="#FF7C57"/>
</g>
<g style="mix-blend-mode:multiply" opacity="0.3">
<path d="M422.162 11.8485C423.971 12.1709 425.644 13.022 426.969 14.2945C428.295 15.567 429.214 17.2037 429.61 18.998C430.006 20.7923 429.861 22.6637 429.194 24.376C428.528 26.0882 427.368 27.5645 425.863 28.6185C424.358 29.6724 422.574 30.2567 420.737 30.2977C418.9 30.3386 417.092 29.8343 415.542 28.8485C413.991 27.8626 412.767 26.4394 412.025 24.7585C411.283 23.0777 411.055 21.2146 411.371 19.4044C411.581 18.1987 412.027 17.0464 412.684 16.0136C413.341 14.9808 414.195 14.0877 415.197 13.3857C416.2 12.6837 417.331 12.1866 418.526 11.9228C419.721 11.659 420.957 11.6337 422.162 11.8485Z" fill="#FF7C57"/>
</g>
<g style="mix-blend-mode:multiply" opacity="0.3">
<path d="M418.904 46.2121C420.715 45.8954 422.579 46.1228 424.261 46.8655C425.943 47.6082 427.367 48.8329 428.353 50.3847C429.339 51.9366 429.843 53.7459 429.801 55.584C429.759 57.4222 429.173 59.2065 428.117 60.7116C427.061 62.2166 425.582 63.3748 423.868 64.0397C422.154 64.7046 420.281 64.8463 418.486 64.447C416.691 64.0476 415.055 63.1252 413.785 61.7962C412.514 60.4672 411.666 58.7913 411.348 56.9805C410.927 54.5512 411.486 52.0541 412.902 50.0358C414.318 48.0176 416.476 46.6427 418.904 46.2121Z" fill="#FF7C57"/>
</g>
<g style="mix-blend-mode:multiply" opacity="0.3">
<path d="M427.591 79.6031C429.186 78.6764 431.02 78.244 432.862 78.3605C434.703 78.4771 436.468 79.1373 437.933 80.2577C439.399 81.378 440.499 82.9081 441.094 84.6541C441.69 86.4002 441.754 88.2836 441.278 90.066C440.802 91.8483 439.808 93.4494 438.422 94.6665C437.036 95.8836 435.32 96.662 433.491 96.903C431.662 97.1441 429.802 96.8369 428.148 96.0205C426.494 95.2042 425.119 93.9152 424.198 92.3169C422.966 90.18 422.631 87.642 423.268 85.2589C423.904 82.8758 425.458 80.842 427.591 79.6031Z" fill="#FF7C57"/>
</g>
<g style="mix-blend-mode:multiply" opacity="0.3">
<path d="M447.182 108.017C448.366 106.603 449.942 105.572 451.712 105.054C453.482 104.537 455.366 104.555 457.125 105.109C458.884 105.662 460.439 106.724 461.594 108.161C462.749 109.599 463.452 111.347 463.614 113.183C463.775 115.02 463.388 116.864 462.502 118.481C461.615 120.098 460.269 121.415 458.633 122.267C456.998 123.119 455.147 123.466 453.313 123.265C451.48 123.064 449.748 122.324 448.336 121.138C446.445 119.55 445.261 117.276 445.044 114.816C444.828 112.356 445.597 109.911 447.182 108.017Z" fill="#FF7C57"/>
</g>
<g style="mix-blend-mode:multiply" opacity="0.3">
<path d="M475.325 128.015C475.957 126.291 477.087 124.792 478.571 123.708C480.054 122.625 481.826 122.005 483.661 121.928C485.497 121.85 487.314 122.318 488.884 123.272C490.454 124.227 491.706 125.625 492.482 127.29C493.258 128.956 493.523 130.814 493.244 132.63C492.965 134.446 492.154 136.138 490.914 137.494C489.674 138.849 488.06 139.807 486.275 140.246C484.491 140.685 482.617 140.585 480.89 139.96C478.568 139.114 476.678 137.38 475.634 135.14C474.591 132.9 474.479 130.337 475.325 128.015Z" fill="#FF7C57"/>
</g>
<g style="mix-blend-mode:multiply" opacity="0.3">
<path d="M508.602 137.2C508.598 135.355 509.141 133.55 510.164 132.013C511.186 130.477 512.642 129.279 514.346 128.571C516.05 127.863 517.926 127.676 519.736 128.035C521.546 128.394 523.209 129.282 524.513 130.587C525.818 131.892 526.707 133.555 527.065 135.365C527.424 137.175 527.238 139.051 526.53 140.755C525.821 142.459 524.623 143.914 523.087 144.937C521.551 145.959 519.746 146.502 517.9 146.498C515.436 146.492 513.075 145.511 511.332 143.768C509.59 142.026 508.608 139.664 508.602 137.2Z" fill="#FF7C57"/>
</g>
<g style="mix-blend-mode:multiply" opacity="0.3">
<path d="M543.011 134.44C542.384 132.712 542.284 130.837 542.722 129.051C543.161 127.266 544.119 125.65 545.475 124.409C546.831 123.168 548.525 122.357 550.342 122.078C552.16 121.8 554.019 122.066 555.684 122.844C557.35 123.621 558.748 124.875 559.702 126.447C560.655 128.019 561.121 129.839 561.041 131.675C560.96 133.512 560.337 135.284 559.25 136.766C558.163 138.249 556.661 139.376 554.933 140.005C552.614 140.844 550.057 140.729 547.823 139.686C545.588 138.642 543.858 136.756 543.011 134.44Z" fill="#FF7C57"/>
</g>
<g style="mix-blend-mode:multiply" opacity="0.3">
<path d="M574.389 120.03C573.203 118.617 572.463 116.885 572.262 115.052C572.061 113.219 572.408 111.368 573.26 109.732C574.112 108.097 575.429 106.75 577.046 105.864C578.663 104.977 580.507 104.59 582.344 104.752C584.18 104.913 585.928 105.616 587.366 106.771C588.803 107.926 589.865 109.482 590.419 111.241C590.972 113 590.99 114.884 590.473 116.653C589.955 118.423 588.924 120 587.51 121.183C585.616 122.769 583.171 123.538 580.711 123.321C578.251 123.105 575.977 121.921 574.389 120.03Z" fill="#FF7C57"/>
</g>
<g style="mix-blend-mode:multiply" opacity="0.3">
<path d="M598.98 95.8461C597.388 94.9263 596.105 93.5555 595.293 91.9069C594.48 90.2582 594.174 88.4057 594.414 86.5834C594.654 84.7611 595.428 83.0508 596.64 81.6684C597.851 80.2861 599.445 79.2938 601.22 78.8168C602.995 78.3399 604.872 78.3998 606.613 78.9889C608.354 79.578 609.881 80.6698 611.002 82.1266C612.123 83.5834 612.787 85.3396 612.91 87.1735C613.033 89.0074 612.61 90.8366 611.694 92.4301C611.084 93.4903 610.271 94.4198 609.302 95.1655C608.333 95.9112 607.226 96.4583 606.045 96.7756C604.864 97.0929 603.632 97.1742 602.42 97.0147C601.207 96.8552 600.038 96.458 598.98 95.8461Z" fill="#FF7C57"/>
</g>
<g style="mix-blend-mode:multiply" opacity="0.3">
<path d="M615.404 64.8079C620.551 64.8079 624.724 60.635 624.724 55.4874C624.724 50.3398 620.551 46.1669 615.404 46.1669C610.256 46.1669 606.083 50.3398 606.083 55.4874C606.083 60.635 610.256 64.8079 615.404 64.8079Z" fill="#FF7C57"/>
</g>
<g style="mix-blend-mode:multiply" opacity="0.3">
<path d="M617.032 30.3085C615.217 30.6298 613.347 30.4053 611.659 29.6634C609.971 28.9215 608.54 27.6956 607.549 26.1408C606.558 24.586 606.05 22.7721 606.09 20.9286C606.13 19.0851 606.716 17.295 607.774 15.7845C608.831 14.2741 610.313 13.1113 612.032 12.4433C613.75 11.7752 615.629 11.632 617.429 12.0316C619.229 12.4312 620.87 13.3558 622.144 14.6883C623.419 16.0208 624.269 17.7015 624.588 19.5175C625.016 21.9503 624.46 24.4533 623.043 26.4766C621.627 28.4999 619.465 29.8781 617.032 30.3085Z" fill="#FF7C57"/>
</g>
<g style="mix-blend-mode:multiply" opacity="0.3">
<path d="M517.968 8.2515L516.339 3.72699C515.729 2.07554 501.499 -36.9936 510.073 -49.2777C510.944 -50.553 512.126 -51.5842 513.508 -52.2732C514.89 -52.9622 516.426 -53.2861 517.968 -53.214C519.537 -53.2827 521.097 -52.9512 522.502 -52.2507C523.907 -51.5502 525.11 -50.5038 525.999 -49.2098C534.596 -36.8127 520.23 2.07554 519.597 3.72699L517.968 8.2515ZM517.968 -49.6397C516.99 -49.695 516.013 -49.4971 515.134 -49.0652C514.254 -48.6333 513.501 -47.9818 512.946 -47.1738C507.449 -39.3011 513.693 -15.1629 517.991 -2.08701C522.312 -15.1176 528.646 -39.188 523.126 -47.1285C522.552 -47.9526 521.777 -48.616 520.874 -49.0556C519.971 -49.4951 518.971 -49.6962 517.968 -49.6397Z" fill="#FF7C57"/>
</g>
<g style="mix-blend-mode:multiply" opacity="0.3">
<path d="M507.698 10.0613L504.644 6.46431C503.512 5.10695 476.795 -26.723 480.664 -41.2014C481.041 -42.7012 481.796 -44.0792 482.858 -45.2039C483.919 -46.3287 485.251 -47.1627 486.727 -47.6262C488.178 -48.2253 489.758 -48.4442 491.318 -48.2621C492.878 -48.08 494.365 -47.503 495.64 -46.5856C507.946 -37.8985 507.743 3.59124 507.743 5.44629L507.698 10.0613ZM490.369 -44.7984C489.527 -44.7851 488.694 -44.6322 487.903 -44.346C486.968 -44.061 486.121 -43.5412 485.444 -42.8363C484.767 -42.1314 484.282 -41.2648 484.034 -40.3192C481.569 -31.0213 495.685 -10.4574 504.191 0.401463C503.807 -13.3304 501.522 -38.0569 493.626 -43.6899C492.687 -44.3985 491.545 -44.7871 490.369 -44.7984Z" fill="#FF7C57"/>
</g>
<g style="mix-blend-mode:multiply" opacity="0.3">
<path d="M498.671 15.2644L494.577 13.0022C493.061 12.1199 457.068 -8.64762 455.734 -23.5785C455.578 -25.1155 455.819 -26.6667 456.433 -28.0844C457.046 -29.5021 458.013 -30.739 459.24 -31.6774C460.395 -32.7444 461.805 -33.4963 463.334 -33.8608C464.863 -34.2253 466.461 -34.1901 467.972 -33.7587C482.496 -29.7997 496.499 9.22421 497.088 10.8983L498.671 15.2644ZM465.461 -30.682C463.985 -30.638 462.573 -30.0684 461.48 -29.0758C460.69 -28.4942 460.066 -27.7166 459.67 -26.8199C459.273 -25.9232 459.117 -24.9385 459.217 -23.9631C460.054 -14.3711 480.369 0.0846901 492.043 7.34653C486.998 -5.4126 476.365 -27.9221 467.158 -30.4558C466.607 -30.6179 466.035 -30.6942 465.461 -30.682Z" fill="#FF7C57"/>
</g>
<g style="mix-blend-mode:multiply" opacity="0.3">
<path d="M491.975 23.2502L487.337 22.4584C485.595 22.1643 444.671 14.9477 438.314 1.37417C437.643 -0.015358 437.339 -1.55331 437.43 -3.09356C437.521 -4.63381 438.005 -6.12519 438.834 -7.426C439.558 -8.82089 440.625 -10.0081 441.935 -10.875C443.246 -11.742 444.756 -12.2602 446.323 -12.3803C461.457 -13.7603 487.858 18.2732 488.966 19.6306L491.975 23.2502ZM447.273 -8.91909H446.617C445.615 -8.83997 444.65 -8.50242 443.818 -7.9394C442.985 -7.37638 442.313 -6.60712 441.866 -5.70669C441.322 -4.89317 441 -3.95155 440.933 -2.9753C440.865 -1.99905 441.055 -1.02214 441.481 -0.141539C445.553 8.56815 469.579 15.2418 483.039 17.9565C474.126 8.02521 457.023 -8.91909 447.273 -8.91909Z" fill="#FF7C57"/>
</g>
<g style="mix-blend-mode:multiply" opacity="0.3">
<path d="M454.716 36.5749C444.716 36.5749 434.943 35.2855 430.509 30.8288C429.423 29.7433 428.631 28.3991 428.207 26.9229C427.784 25.4467 427.743 23.8869 428.089 22.3906C428.293 20.8304 428.893 19.3484 429.832 18.0854C430.77 16.8223 432.016 15.8201 433.45 15.174C447.137 8.8623 482.949 29.7655 484.464 30.6705L488.536 32.9327L483.899 33.7697C474.26 35.4682 464.502 36.4062 454.716 36.5749ZM439.785 17.4363C438.074 17.3901 436.371 17.6982 434.785 18.3412C433.871 18.7644 433.081 19.4152 432.491 20.2312C431.901 21.0472 431.53 22.001 431.414 23.0014C431.19 23.952 431.214 24.9443 431.483 25.8832C431.752 26.822 432.258 27.6759 432.953 28.3629C439.739 35.1497 464.624 33.2042 478.198 31.236C468.04 25.7161 450.349 17.4363 439.785 17.4363Z" fill="#FF7C57"/>
</g>
<g style="mix-blend-mode:multiply" opacity="0.3">
<path d="M439.626 62.3873C437.44 62.451 435.266 62.0501 433.247 61.2109C431.858 60.5639 430.656 59.5748 429.754 58.3363C428.852 57.0978 428.279 55.6505 428.089 54.1301C427.753 52.5979 427.812 51.0057 428.259 49.5023C428.706 47.9989 429.527 46.6334 430.645 45.5335C441.346 34.9009 482.157 42.2985 483.899 42.6152L488.536 43.4748L484.464 45.8502C483.016 46.6194 455.711 62.3873 439.626 62.3873ZM454.195 43.3165C445.01 43.3165 436.572 44.4476 432.998 47.9994C432.281 48.7049 431.758 49.5839 431.48 50.5511C431.203 51.5182 431.18 52.5407 431.414 53.5193C431.529 54.4939 431.893 55.4225 432.472 56.2152C433.05 57.0078 433.824 57.6377 434.717 58.0438C443.449 62.0932 466.117 51.7547 478.243 45.2394C470.281 44.049 462.246 43.4065 454.195 43.3165Z" fill="#FF7C57"/>
</g>
<g style="mix-blend-mode:multiply" opacity="0.3">
<path d="M447.092 88.8331C446.79 88.855 446.488 88.855 446.187 88.8331C444.651 88.7187 443.169 88.214 441.882 87.3668C440.596 86.5196 439.547 85.3579 438.834 83.9918C437.971 82.6585 437.467 81.1244 437.372 79.5388C437.277 77.9531 437.594 76.3699 438.292 74.9428C444.716 61.3693 485.595 54.2884 487.337 53.9943L491.998 53.2252L488.966 56.8448C487.858 58.2247 462.181 88.8331 447.092 88.8331ZM483.039 58.4057C469.465 61.1657 445.576 67.7262 441.459 76.5038C441.024 77.411 440.832 78.4159 440.904 79.4195C440.975 80.4231 441.307 81.3908 441.866 82.2273C442.306 83.1021 442.964 83.8489 443.776 84.3957C444.588 84.9425 445.528 85.2709 446.504 85.3492C456.028 86.0957 473.854 68.6764 483.039 58.4057Z" fill="#FF7C57"/>
</g>
<g style="mix-blend-mode:multiply" opacity="0.3">
<path d="M465.325 110.641C462.639 110.512 460.113 109.323 458.302 107.334C456.491 105.345 455.543 102.718 455.666 100.031C457.046 85.0099 493.061 64.446 494.599 63.5637L498.694 61.3015L497.088 65.826C496.499 67.4774 482.292 106.547 467.814 110.438C466.997 110.614 466.16 110.683 465.325 110.641ZM492.02 69.1515C480.324 76.3455 460.032 90.7108 459.15 100.348C459.113 101.327 459.299 102.302 459.693 103.199C460.088 104.096 460.682 104.892 461.429 105.526C462.177 106.16 463.058 106.616 464.007 106.859C464.957 107.103 465.949 107.127 466.909 106.931C476.184 104.42 486.907 81.9106 492.02 69.1515Z" fill="#FF7C57"/>
</g>
<g style="mix-blend-mode:multiply" opacity="0.3">
<path d="M490.323 124.803C489.094 124.793 487.875 124.563 486.726 124.124C485.227 123.656 483.872 122.811 482.791 121.67C481.71 120.53 480.938 119.132 480.55 117.609C476.705 103.04 503.512 71.3911 504.666 70.1016L507.72 66.5272V71.1649C507.72 72.9294 507.72 114.487 495.459 123.197C493.957 124.255 492.161 124.817 490.323 124.803ZM504.168 76.1644C495.64 86.9102 481.546 107.361 483.921 116.704C484.174 117.678 484.673 118.57 485.37 119.295C486.067 120.02 486.94 120.554 487.903 120.844C488.804 121.228 489.788 121.376 490.762 121.273C491.736 121.17 492.667 120.82 493.468 120.256C501.341 114.713 503.739 89.8963 504.168 76.1644Z" fill="#FF7C57"/>
</g>
<g style="mix-blend-mode:multiply" opacity="0.3">
<path d="M517.968 129.622C516.399 129.697 514.836 129.368 513.43 128.667C512.024 127.966 510.822 126.916 509.937 125.617C501.341 113.243 515.729 74.332 516.339 72.6806L517.991 68.1561L519.597 72.6806C520.208 74.332 534.437 113.401 525.863 125.685C524.993 126.961 523.81 127.992 522.428 128.681C521.046 129.37 519.511 129.694 517.968 129.622ZM517.968 78.5851C513.625 91.6157 507.313 115.686 512.81 123.627C513.381 124.454 514.156 125.12 515.059 125.56C515.963 126 516.965 126.199 517.968 126.138C518.963 126.216 519.961 126.031 520.862 125.602C521.763 125.173 522.536 124.516 523.104 123.694C528.488 115.799 522.244 91.6609 517.968 78.5851Z" fill="#FF7C57"/>
</g>
<g style="mix-blend-mode:multiply" opacity="0.3">
<path d="M545.545 124.826C543.662 124.816 541.831 124.206 540.319 123.084C527.99 114.397 528.194 72.9294 528.216 71.1649V66.4594L531.27 70.0564C532.401 71.3911 559.119 103.221 555.273 117.722C554.892 119.218 554.135 120.591 553.074 121.712C552.013 122.832 550.683 123.663 549.21 124.124C548.037 124.566 546.798 124.803 545.545 124.826ZM531.768 76.1645C532.13 89.8964 534.437 114.623 542.333 120.233C543.147 120.823 544.102 121.19 545.102 121.297C546.102 121.404 547.113 121.248 548.034 120.844C548.971 120.563 549.819 120.045 550.497 119.339C551.175 118.633 551.659 117.765 551.902 116.817C554.391 107.519 540.251 86.9781 531.768 76.1645Z" fill="#FF7C57"/>
</g>
<g style="mix-blend-mode:multiply" opacity="0.3">
<path d="M570.611 110.687C569.753 110.687 568.9 110.565 568.077 110.325C553.44 106.456 539.437 67.3417 538.939 65.7355L537.356 61.2109L541.45 63.4732C542.989 64.3329 578.959 85.1004 580.293 100.054C580.445 101.587 580.202 103.134 579.589 104.547C578.975 105.961 578.011 107.194 576.787 108.13C575.112 109.711 572.913 110.621 570.611 110.687ZM543.894 69.1515C548.939 81.9332 559.571 104.42 568.892 106.976C569.861 107.242 570.883 107.252 571.859 107.006C572.834 106.761 573.729 106.267 574.457 105.574C575.245 104.991 575.867 104.213 576.264 103.317C576.66 102.42 576.817 101.436 576.719 100.461C575.882 90.8917 555.567 76.4133 543.894 69.1515Z" fill="#FF7C57"/>
</g>
<g style="mix-blend-mode:multiply" opacity="0.3">
<path d="M588.709 88.9235C573.552 88.9235 547.988 58.2247 546.948 56.89L543.939 53.2477L548.463 54.0395C550.205 54.3563 591.13 61.5502 597.486 75.1464C598.157 76.5359 598.461 78.0739 598.37 79.6141C598.279 81.1544 597.796 82.6458 596.966 83.9466C596.242 85.3386 595.174 86.5224 593.863 87.3855C592.552 88.2486 591.043 88.7625 589.478 88.8783L588.709 88.9235ZM552.897 58.4283C561.946 68.699 579.75 86.3446 589.32 85.3944C590.323 85.3191 591.289 84.9859 592.126 84.427C592.962 83.8681 593.64 83.1026 594.093 82.2046C594.627 81.3826 594.942 80.4382 595.009 79.4605C595.076 78.4829 594.893 77.5042 594.478 76.6168C590.383 67.9977 566.358 61.2109 552.897 58.4283Z" fill="#FF7C57"/>
</g>
<g style="mix-blend-mode:multiply" opacity="0.3">
<path d="M596.242 62.5231C580.135 62.5231 552.897 46.6872 551.585 45.8502L547.536 43.4522L552.174 42.6152C553.893 42.2985 594.817 35.0819 605.45 45.6692C606.556 46.7479 607.367 48.0917 607.807 49.5728C608.246 51.0538 608.299 52.6227 607.961 54.1301C607.757 55.6845 607.16 57.1612 606.225 58.4202C605.291 59.6791 604.051 60.6787 602.622 61.3241C600.607 62.1797 598.43 62.5888 596.242 62.5231ZM557.784 45.262C569.864 51.8 592.464 62.2063 601.242 58.1569C602.142 57.7509 602.923 57.1225 603.513 56.3309C604.103 55.5393 604.481 54.6107 604.613 53.6324C604.839 52.6783 604.816 51.6821 604.547 50.7393C604.278 49.7965 603.77 48.9387 603.074 48.2482C596.152 41.3483 571.312 43.3165 557.693 45.3751L557.784 45.262Z" fill="#FF7C57"/>
</g>
<g style="mix-blend-mode:multiply" opacity="0.3">
<path d="M581.515 36.6881C571.653 36.54 561.818 35.6019 552.106 33.8829L547.581 33.0232L551.653 30.761C553.191 29.8561 589.184 9.08854 602.758 15.4002C604.168 16.0323 605.392 17.0148 606.315 18.2543C607.238 19.4938 607.828 20.949 608.029 22.4811C608.373 24.013 608.319 25.6076 607.871 27.1126C607.423 28.6176 606.598 29.9828 605.472 31.0777C600.97 35.376 591.378 36.6881 581.515 36.6881ZM557.693 31.2587C571.267 33.2721 596.152 35.3081 602.939 28.4987C603.658 27.7992 604.182 26.9242 604.46 25.9602C604.737 24.9961 604.759 23.9763 604.522 23.0014C604.41 22.0291 604.049 21.1021 603.474 20.3097C602.9 19.5172 602.131 18.886 601.242 18.4769C592.51 14.4275 569.819 24.766 557.693 31.2587Z" fill="#FF7C57"/>
</g>
<g style="mix-blend-mode:multiply" opacity="0.3">
<path d="M543.962 23.2276L546.97 19.608C548.079 18.2959 573.755 -12.3351 588.845 -12.3351H589.75C591.288 -12.2184 592.771 -11.7103 594.058 -10.859C595.345 -10.0077 596.393 -8.8415 597.102 -7.4712C597.949 -6.15255 598.444 -4.63858 598.539 -3.07407C598.634 -1.50956 598.326 0.0531845 597.645 1.46472C591.22 15.0383 550.341 22.1191 548.599 22.4132L543.962 23.2276ZM588.709 -8.91904C578.981 -8.91904 561.811 8.00264 552.83 18.0244C566.29 15.2645 590.293 8.70394 594.41 -0.0736189C594.842 -0.980582 595.033 -1.98336 594.966 -2.98566C594.899 -3.98796 594.575 -4.9561 594.025 -5.79713C593.587 -6.67334 592.93 -7.42132 592.117 -7.96836C591.305 -8.51541 590.364 -8.84291 589.388 -8.91904H588.709Z" fill="#FF7C57"/>
</g>
<g style="mix-blend-mode:multiply" opacity="0.3">
<path d="M537.243 15.2645L538.849 10.7399C539.437 9.06587 553.644 -29.9807 568.122 -33.8718C569.607 -34.2912 571.173 -34.3243 572.674 -33.968C574.175 -33.6116 575.559 -32.8776 576.696 -31.8357C577.945 -30.8822 578.929 -29.6249 579.555 -28.1835C580.181 -26.7422 580.427 -25.1646 580.271 -23.6011C578.891 -8.60235 542.876 11.9842 541.36 12.8438L537.243 15.2645ZM570.611 -30.6367C570.082 -30.6377 569.557 -30.5615 569.05 -30.4105C559.775 -27.922 549.029 -5.41257 543.939 7.36919C555.635 0.175209 575.927 -14.2127 576.81 -23.8273C576.921 -24.8233 576.771 -25.8311 576.374 -26.7514C575.977 -27.6717 575.348 -28.4728 574.547 -29.0758C573.472 -30.063 572.071 -30.6189 570.611 -30.6367Z" fill="#FF7C57"/>
</g>
<g style="mix-blend-mode:multiply" opacity="0.3">
<path d="M528.216 10.0387V5.33318C528.216 3.56862 528.216 -37.9664 540.455 -46.6987C541.709 -47.6045 543.174 -48.1738 544.711 -48.352C546.248 -48.5302 547.805 -48.3115 549.233 -47.7167C550.731 -47.2427 552.083 -46.393 553.16 -45.2486C554.237 -44.1042 555.004 -42.7031 555.386 -41.1788C559.232 -26.6099 532.424 5.03909 531.293 6.32858L528.216 10.0387ZM545.726 -44.7984C544.577 -44.792 543.46 -44.4196 542.536 -43.7352C534.596 -38.2153 532.153 -13.4436 531.768 0.356216C540.319 -10.4121 554.391 -30.8629 552.015 -40.206C551.759 -41.1851 551.253 -42.0811 550.547 -42.8066C549.842 -43.5321 548.96 -44.0625 547.988 -44.346C547.264 -44.6175 546.5 -44.7703 545.726 -44.7984Z" fill="#FF7C57"/>
</g>
<g style="mix-blend-mode:multiply" opacity="0.2">
<path d="M-3.36728 339.552C-13.2195 336.246 -21.3558 329.163 -25.9881 319.86C-30.6204 310.557 -31.3696 299.796 -28.0711 289.941C-25.3839 281.958 -19.6399 275.367 -12.0993 271.614C-4.55875 267.86 4.16271 267.251 12.1518 269.92C15.3696 270.998 18.3435 272.699 20.9037 274.927C23.4638 277.154 25.5601 279.864 27.0727 282.902C28.5853 285.94 29.4846 289.246 29.7192 292.631C29.9538 296.016 29.5191 299.415 28.4401 302.632C26.66 307.939 22.8468 312.323 17.8377 314.821C12.8286 317.319 7.03282 317.728 1.7228 315.957C-2.62746 314.492 -6.21886 311.361 -8.26318 307.252C-10.3075 303.142 -10.6377 298.389 -9.18127 294.036C-8.59343 292.249 -7.6577 290.596 -6.42804 289.173C-5.19839 287.749 -3.69913 286.583 -2.01672 285.742C-0.334303 284.901 1.49798 284.401 3.3745 284.271C5.25102 284.142 7.13465 284.385 8.91678 284.987C11.8945 285.987 14.3533 288.129 15.7531 290.941C17.1529 293.754 17.3792 297.006 16.3822 299.985C15.9847 301.235 15.3433 302.392 14.4952 303.392C13.647 304.391 12.609 305.213 11.4412 305.808C10.2734 306.404 8.99911 306.761 7.69204 306.861C6.38498 306.96 5.07116 306.799 3.8267 306.388C2.78684 306.04 1.82562 305.491 0.997931 304.772C0.170242 304.053 -0.507694 303.178 -0.997171 302.197C-1.48665 301.216 -1.77808 300.148 -1.8548 299.054C-1.93153 297.961 -1.79206 296.863 -1.44435 295.823C-1.15304 294.928 -0.686703 294.099 -0.0724602 293.386C0.541782 292.673 1.29168 292.089 2.13365 291.668C2.97562 291.247 3.89288 290.997 4.83209 290.934C5.77131 290.87 6.71377 290.994 7.60468 291.298L6.24731 295.37C5.89387 295.25 5.52006 295.201 5.14745 295.225C4.77485 295.25 4.41083 295.348 4.0764 295.514C3.74199 295.681 3.44379 295.911 3.19902 296.193C2.95425 296.475 2.76777 296.803 2.65033 297.158C2.48022 297.666 2.41201 298.202 2.44962 298.736C2.48722 299.271 2.6299 299.793 2.86947 300.272C3.10905 300.751 3.4408 301.178 3.84575 301.529C4.25069 301.879 4.72086 302.147 5.22931 302.316C6.64545 302.782 8.1887 302.671 9.52327 302.006C10.8578 301.341 11.8757 300.176 12.3554 298.764C12.9937 296.859 12.8494 294.778 11.9543 292.98C11.0593 291.181 9.48659 289.811 7.58205 289.172C5.065 288.333 2.31787 288.526 -0.0569782 289.709C-2.43183 290.892 -4.24056 292.969 -5.08659 295.483C-6.17738 298.76 -5.92567 302.334 -4.38656 305.425C-2.84745 308.516 -0.146343 310.872 3.12541 311.975C5.22132 312.678 7.43517 312.961 9.6405 312.808C11.8458 312.656 13.9995 312.07 15.9784 311.085C17.9573 310.099 19.7228 308.734 21.1739 307.066C22.6251 305.399 23.7335 303.461 24.4359 301.365C26.2513 295.944 25.8416 290.025 23.2968 284.905C20.752 279.786 16.28 275.885 10.8623 274.06C3.94429 271.751 -3.60728 272.281 -10.1348 275.534C-16.6622 278.787 -21.6322 284.498 -23.9538 291.411C-26.86 300.157 -26.1943 309.697 -22.1016 317.955C-18.0088 326.212 -10.8203 332.519 -2.10041 335.503L-3.36728 339.552Z" fill="#FF7C57"/>
</g>
<g style="mix-blend-mode:multiply" opacity="0.2">
<path d="M0.16186 271.617C0.00350189 271.368 -15.3572 248.315 0.433328 233L3.41951 236.077C-9.79207 248.881 3.14804 268.382 3.69098 269.219L0.16186 271.617Z" fill="#FF7C57"/>
</g>
<g style="mix-blend-mode:multiply" opacity="0.2">
<path d="M3.98501 271.594L0.410645 269.219C0.953586 268.404 13.5544 248.858 0.410645 236.077L3.39682 233C19.0969 248.293 4.12074 271.368 3.98501 271.594Z" fill="#FF7C57"/>
</g>
<g style="mix-blend-mode:multiply" opacity="0.2">
<path d="M17.0383 274.942L13.7354 272.295C13.7354 272.182 21.4497 262.341 18.8481 253.903C17.4003 249.243 12.9889 245.714 5.70441 243.429L6.99389 239.357C15.7036 242.094 21.0651 246.574 22.8297 252.659C26.1552 263.246 17.4229 274.467 17.0383 274.942Z" fill="#FF7C57"/>
</g>
<g style="mix-blend-mode:multiply" opacity="0.2">
<path d="M28.1008 284.421L24.5943 281.978C24.5943 281.842 33.2813 269.241 29.707 259.695C27.9424 254.989 23.3726 251.664 16.1334 249.809L17.1741 245.669C25.8611 247.931 31.4037 252.116 33.6885 258.201C38.0547 269.875 28.508 283.765 28.1008 284.421Z" fill="#FF7C57"/>
</g>
<g style="mix-blend-mode:multiply" opacity="0.2">
<path d="M29.7296 300.981L26.8792 297.791C27.0375 297.655 43.1222 283.018 41.335 270.644C40.611 265.667 36.9462 261.595 30.4761 258.45L32.3086 254.605C40.1812 258.36 44.6379 263.654 45.5654 270.033C47.6693 284.67 30.4761 300.325 29.7296 300.981Z" fill="#FF7C57"/>
</g>
<g style="mix-blend-mode:multiply" opacity="0.2">
<path d="M5.13885 285.326C3.98 285.326 2.84718 284.982 1.88363 284.339C0.92008 283.695 0.169084 282.78 -0.274389 281.709C-0.717861 280.638 -0.833891 279.46 -0.607811 278.324C-0.381731 277.187 0.17631 276.143 0.99574 275.324C1.81517 274.504 2.85919 273.946 3.99577 273.72C5.13235 273.494 6.31045 273.61 7.38109 274.054C8.45172 274.497 9.36681 275.248 10.0106 276.212C10.6545 277.175 10.9981 278.308 10.9981 279.467C10.9981 280.236 10.8465 280.998 10.5521 281.709C10.2576 282.42 9.82604 283.066 9.28196 283.61C8.73788 284.154 8.09196 284.586 7.38109 284.88C6.67021 285.174 5.9083 285.326 5.13885 285.326ZM5.13885 277.883C4.71886 277.883 4.31607 278.05 4.01909 278.347C3.72211 278.644 3.55527 279.047 3.55527 279.467C3.55527 279.887 3.72211 280.29 4.01909 280.587C4.31607 280.883 4.71886 281.05 5.13885 281.05C5.55884 281.05 5.96163 280.883 6.2586 280.587C6.55558 280.29 6.72243 279.887 6.72243 279.467C6.72243 279.047 6.55558 278.644 6.2586 278.347C5.96163 278.05 5.55884 277.883 5.13885 277.883Z" fill="#FF7C57"/>
</g>
<g style="mix-blend-mode:multiply" opacity="0.2">
<path d="M-2.28138 300.37C-3.44023 300.37 -4.57305 300.026 -5.5366 299.383C-6.50015 298.739 -7.25114 297.824 -7.69461 296.753C-8.13808 295.682 -8.25412 294.504 -8.02804 293.368C-7.80196 292.231 -7.24392 291.187 -6.42449 290.368C-5.60506 289.548 -4.56104 288.99 -3.42446 288.764C-2.28788 288.538 -1.10977 288.654 -0.0391359 289.097C1.0315 289.541 1.94658 290.292 2.59041 291.256C3.23423 292.219 3.57786 293.352 3.57786 294.511C3.57786 296.065 2.96056 297.555 1.86174 298.654C0.762917 299.753 -0.727412 300.37 -2.28138 300.37ZM-2.28138 292.927C-2.59458 292.927 -2.90075 293.02 -3.16116 293.194C-3.42158 293.368 -3.62455 293.615 -3.74441 293.905C-3.86427 294.194 -3.89563 294.513 -3.83452 294.82C-3.77342 295.127 -3.6226 295.409 -3.40113 295.631C-3.17967 295.852 -2.8975 296.003 -2.59032 296.064C-2.28313 296.125 -1.96473 296.094 -1.67537 295.974C-1.38601 295.854 -1.13868 295.651 -0.964676 295.391C-0.79067 295.13 -0.697799 294.824 -0.697799 294.511C-0.697799 294.091 -0.864638 293.688 -1.16162 293.391C-1.4586 293.094 -1.86139 292.927 -2.28138 292.927Z" fill="#FF7C57"/>
</g>
<g style="mix-blend-mode:multiply" opacity="0.2">
<path d="M1.83585 314.373C0.670611 314.378 -0.469703 314.036 -1.44043 313.392C-2.41116 312.747 -3.16856 311.829 -3.61654 310.753C-4.06453 309.677 -4.18291 308.493 -3.95668 307.35C-3.73045 306.207 -3.1698 305.156 -2.34585 304.332C-1.52189 303.508 -0.471769 302.948 0.671306 302.722C1.81438 302.495 2.9989 302.614 4.07459 303.062C5.15028 303.51 6.06866 304.267 6.71324 305.238C7.35783 306.209 7.69957 307.349 7.69509 308.514C7.68914 310.066 7.06991 311.553 5.97237 312.651C4.87484 313.748 3.38798 314.367 1.83585 314.373ZM1.83585 306.931C1.52265 306.931 1.21647 307.023 0.956056 307.197C0.695637 307.371 0.492666 307.619 0.372809 307.908C0.252951 308.197 0.221593 308.516 0.282696 308.823C0.343799 309.13 0.494618 309.412 0.716086 309.634C0.937553 309.855 1.21972 310.006 1.5269 310.067C1.83409 310.128 2.15249 310.097 2.44185 309.977C2.73121 309.857 2.97854 309.654 3.15254 309.394C3.32655 309.134 3.41942 308.827 3.41942 308.514C3.41942 308.094 3.25258 307.691 2.9556 307.394C2.65862 307.097 2.25584 306.931 1.83585 306.931Z" fill="#FF7C57"/>
</g>
<g style="mix-blend-mode:multiply" opacity="0.2">
<path d="M17.6265 308.967C16.4677 308.967 15.3348 308.623 14.3713 307.979C13.4078 307.335 12.6568 306.42 12.2133 305.35C11.7698 304.279 11.6538 303.101 11.8799 301.964C12.1059 300.828 12.664 299.784 13.4834 298.964C14.3028 298.145 15.3469 297.587 16.4834 297.361C17.62 297.135 18.7981 297.251 19.8688 297.694C20.9394 298.138 21.8545 298.889 22.4983 299.852C23.1421 300.816 23.4858 301.948 23.4858 303.107C23.4858 304.661 22.8685 306.152 21.7696 307.25C20.6708 308.349 19.1805 308.967 17.6265 308.967ZM17.6265 301.524C17.3133 301.524 17.0071 301.617 16.7467 301.791C16.4863 301.965 16.2833 302.212 16.1635 302.501C16.0436 302.791 16.0123 303.109 16.0734 303.416C16.1345 303.723 16.2853 304.006 16.5068 304.227C16.7282 304.449 17.0104 304.599 17.3176 304.66C17.6248 304.722 17.9432 304.69 18.2325 304.57C18.5219 304.45 18.7692 304.248 18.9432 303.987C19.1172 303.727 19.2101 303.421 19.2101 303.107C19.2101 302.687 19.0433 302.285 18.7463 301.988C18.4493 301.691 18.0465 301.524 17.6265 301.524Z" fill="#FF7C57"/>
</g>
<g style="mix-blend-mode:multiply" opacity="0.2">
<path d="M19.5042 294.239C18.3492 294.239 17.22 293.898 16.2586 293.258C15.2971 292.618 14.5461 291.708 14.1001 290.643C13.6541 289.577 13.5329 288.404 13.7518 287.27C13.9706 286.136 14.5197 285.092 15.3301 284.269C16.1405 283.446 17.1761 282.881 18.3066 282.645C19.4372 282.408 20.6123 282.512 21.6844 282.941C22.7565 283.371 23.6777 284.108 24.3323 285.059C24.9868 286.011 25.3456 287.135 25.3634 288.29C25.3754 289.067 25.2327 289.838 24.9436 290.56C24.6546 291.281 24.2249 291.938 23.6796 292.491C23.1343 293.045 22.4844 293.485 21.7675 293.785C21.0507 294.085 20.2813 294.239 19.5042 294.239ZM19.5042 286.796C19.191 286.796 18.8848 286.889 18.6244 287.063C18.364 287.237 18.161 287.485 18.0411 287.774C17.9213 288.063 17.8899 288.382 17.951 288.689C18.0121 288.996 18.163 289.278 18.3844 289.5C18.6059 289.721 18.8881 289.872 19.1952 289.933C19.5024 289.994 19.8208 289.963 20.1102 289.843C20.3995 289.723 20.6469 289.52 20.8209 289.26C20.9949 288.999 21.0878 288.693 21.0878 288.38C21.0878 287.96 20.9209 287.557 20.6239 287.26C20.327 286.963 19.9242 286.796 19.5042 286.796Z" fill="#FF7C57"/>
</g>
<g style="mix-blend-mode:multiply" opacity="0.2">
<path d="M-0.154769 331.091C-1.31905 331.096 -2.45846 330.755 -3.4287 330.111C-4.39894 329.468 -5.15636 328.551 -5.60501 327.476C-6.05367 326.402 -6.17338 325.219 -5.94899 324.076C-5.7246 322.934 -5.16619 321.883 -4.34451 321.059C-3.52282 320.234 -2.47482 319.671 -1.33323 319.443C-0.191648 319.214 0.992158 319.329 2.06825 319.773C3.14434 320.218 4.06429 320.972 4.71161 321.939C5.35892 322.907 5.70447 324.045 5.70448 325.21C5.70449 326.766 5.0879 328.258 3.98972 329.361C2.89155 330.463 1.40128 331.086 -0.154769 331.091ZM-0.154769 323.649C-0.377076 323.622 -0.602522 323.643 -0.816228 323.71C-1.02993 323.776 -1.22704 323.888 -1.39455 324.036C-1.56205 324.185 -1.69614 324.367 -1.78797 324.571C-1.8798 324.776 -1.92728 324.997 -1.92728 325.221C-1.92728 325.445 -1.8798 325.666 -1.78797 325.87C-1.69614 326.075 -1.56205 326.257 -1.39455 326.406C-1.22704 326.554 -1.02993 326.666 -0.816228 326.732C-0.602522 326.799 -0.377076 326.82 -0.154769 326.793C0.0675378 326.82 0.292984 326.799 0.50669 326.732C0.720396 326.666 0.917505 326.554 1.08501 326.406C1.25251 326.257 1.3866 326.075 1.47843 325.87C1.57026 325.666 1.61775 325.445 1.61775 325.221C1.61775 324.997 1.57026 324.776 1.47843 324.571C1.3866 324.367 1.25251 324.185 1.08501 324.036C0.917505 323.888 0.720396 323.776 0.50669 323.71C0.292984 323.643 0.0675378 323.622 -0.154769 323.649Z" fill="#FF7C57"/>
</g>
<g style="mix-blend-mode:multiply" opacity="0.2">
<path d="M-3.00533 473.953C-6.45276 473.957 -9.87714 473.391 -13.1402 472.279C-19.6352 470.097 -24.9987 465.426 -28.0527 459.293C-31.1067 453.16 -31.6015 446.065 -29.4285 439.567C-28.5501 436.938 -27.1615 434.508 -25.3422 432.417C-23.5229 430.326 -21.3087 428.614 -18.8266 427.381C-16.3445 426.147 -13.6433 425.415 -10.8779 425.228C-8.11247 425.04 -5.33721 425.4 -2.71124 426.287C-0.553675 427.007 1.44053 428.146 3.15702 429.639C4.87352 431.131 6.27855 432.948 7.29156 434.984C8.30458 437.021 8.90564 439.237 9.06031 441.507C9.21497 443.776 8.92018 446.053 8.19284 448.209C7.60241 449.994 6.66517 451.644 5.43493 453.066C4.2047 454.488 2.70571 455.653 1.02406 456.494C-0.657598 457.334 -2.48879 457.835 -4.36436 457.966C-6.23993 458.097 -8.12293 457.856 -9.90521 457.258C-12.883 456.257 -15.3418 454.115 -16.7416 451.303C-18.1413 448.491 -18.3676 445.238 -17.3707 442.259C-16.957 441.024 -16.3039 439.883 -15.4488 438.9C-14.5937 437.918 -13.5534 437.114 -12.3873 436.534C-11.2211 435.954 -9.95216 435.61 -8.65287 435.521C-7.35358 435.432 -6.04947 435.6 -4.81513 436.015C-3.77474 436.365 -2.8136 436.917 -1.98676 437.639C-1.15992 438.361 -0.483599 439.239 0.00347519 440.223C0.496857 441.204 0.789051 442.274 0.862867 443.369C0.936686 444.465 0.79063 445.564 0.433302 446.602C0.139378 447.496 -0.328484 448.322 -0.943312 449.034C-1.55814 449.745 -2.30777 450.328 -3.14897 450.749C-3.99018 451.17 -4.90633 451.42 -5.84459 451.484C-6.78284 451.549 -7.72466 451.428 -8.61573 451.127L-7.25837 447.077C-6.54431 447.315 -5.76545 447.26 -5.09163 446.925C-4.41781 446.59 -3.90369 446.003 -3.66138 445.29C-3.32332 444.261 -3.40446 443.14 -3.88721 442.17C-4.36996 441.201 -5.21543 440.46 -6.24036 440.11C-7.65663 439.649 -9.19726 439.763 -10.5302 440.427C-11.8632 441.092 -12.8818 442.253 -13.3665 443.661C-13.9985 445.567 -13.8513 447.644 -12.957 449.441C-12.0628 451.238 -10.494 452.609 -8.5931 453.253C-7.34705 453.675 -6.02989 453.846 -4.71744 453.757C-3.40498 453.668 -2.12314 453.32 -0.945692 452.733C0.231756 452.146 1.28157 451.333 2.14332 450.339C3.00507 449.345 3.66174 448.19 4.07553 446.942C4.62494 445.32 4.84816 443.605 4.73235 441.897C4.61653 440.189 4.16399 438.52 3.40073 436.987C2.63749 435.454 1.57861 434.088 0.285067 432.966C-1.00848 431.844 -2.51115 430.989 -4.13646 430.45C-8.36952 429.037 -12.9903 429.36 -16.9853 431.349C-20.9803 433.338 -24.0233 436.83 -25.4469 441.06C-27.2561 446.481 -26.8435 452.398 -24.2995 457.516C-21.7555 462.634 -17.2874 466.535 -11.8734 468.365C-8.44957 469.515 -4.83268 469.979 -1.22947 469.731C2.37375 469.482 5.89264 468.526 9.12606 466.916C12.3595 465.307 15.244 463.076 17.6148 460.351C19.9855 457.627 21.796 454.461 22.9428 451.036C24.4015 446.689 24.9893 442.096 24.6725 437.521C24.3556 432.946 23.1404 428.478 21.0962 424.373C19.052 420.268 16.219 416.606 12.759 413.596C9.29892 410.586 5.27971 408.288 0.931 406.832L2.28835 402.782C12.129 406.067 20.2656 413.12 24.9136 422.394C29.5616 431.669 30.3416 442.409 27.0827 452.258C25.7726 456.22 23.688 459.883 20.95 463.032C18.212 466.182 14.8753 468.756 11.1338 470.605C6.74192 472.796 1.90281 473.942 -3.00533 473.953Z" fill="#FF7C57"/>
</g>
<g style="mix-blend-mode:multiply" opacity="0.2">
<path d="M-1.33126 509.199L-4.36269 506.122C8.84889 493.341 -4.09121 473.817 -4.63416 473.003L-1.10504 470.605C-0.901437 470.831 14.4593 493.906 -1.33126 509.199Z" fill="#FF7C57"/>
</g>
<g style="mix-blend-mode:multiply" opacity="0.2">
<path d="M1.94909 502.865L0.659607 498.679C7.92145 496.417 12.3555 492.865 13.7807 488.205C16.3823 479.767 8.73586 469.926 8.66799 469.836L12.0161 467.189C12.4007 467.641 21.0652 478.862 17.8754 489.449C15.9977 495.625 10.6362 500.105 1.94909 502.865Z" fill="#FF7C57"/>
</g>
<g style="mix-blend-mode:multiply" opacity="0.2">
<path d="M12.1971 496.53L11.1338 492.39C18.373 490.535 22.9201 487.21 24.7073 482.504C28.2817 472.958 19.6851 460.357 19.5946 460.221L23.1238 457.8C23.531 458.389 33.0551 472.347 28.7115 483.997C26.4267 490.105 20.8615 494.313 12.1971 496.53Z" fill="#FF7C57"/>
</g>
<g style="mix-blend-mode:multiply" opacity="0.2">
<path d="M27.309 487.685L25.4766 483.816C32.2633 480.536 36.2901 476.193 37.1498 470.922C39.0727 459.022 25.4313 445.652 25.2729 445.516L28.2591 442.44C28.8926 443.051 43.6651 457.484 41.3576 471.6C40.2491 478.319 35.521 483.749 27.309 487.685Z" fill="#FF7C57"/>
</g>
<g style="mix-blend-mode:multiply" opacity="0.2">
<path d="M41.2445 473.206L38.0094 470.401C44.5926 462.8 47.0585 455.583 45.4749 448.91C42.2399 435.676 23.8251 428.323 23.6441 428.255L25.1824 424.274C26.0421 424.591 45.8369 432.486 49.6374 447.869C51.6282 455.991 48.8004 464.497 41.2445 473.206Z" fill="#FF7C57"/>
</g>
<g style="mix-blend-mode:multiply" opacity="0.2">
<path d="M49.0719 446.942L44.8868 446.037C46.8097 437.101 45.5654 429.749 41.154 424.183C31.9467 412.578 12.0162 412.08 11.7447 412.08V407.782C12.6496 407.782 33.9148 408.348 44.3438 421.537C49.7506 428.165 51.289 436.694 49.0719 446.942Z" fill="#FF7C57"/>
</g>
<g style="mix-blend-mode:multiply" opacity="0.2">
<path d="M1.29302 453.547C0.134175 453.547 -0.998649 453.204 -1.9622 452.56C-2.92574 451.916 -3.67674 451.001 -4.12021 449.93C-4.56369 448.86 -4.67972 447.682 -4.45364 446.545C-4.22756 445.409 -3.66952 444.364 -2.85009 443.545C-2.03065 442.726 -0.986639 442.168 0.149944 441.942C1.28653 441.715 2.46462 441.831 3.53526 442.275C4.6059 442.718 5.52099 443.469 6.16481 444.433C6.80863 445.397 7.15227 446.529 7.15227 447.688C7.15227 449.242 6.53496 450.732 5.43613 451.831C4.33731 452.93 2.84699 453.547 1.29302 453.547ZM1.29302 446.105C0.979822 446.105 0.67365 446.197 0.413231 446.372C0.152813 446.546 -0.050158 446.793 -0.170015 447.082C-0.289873 447.372 -0.32123 447.69 -0.260128 447.997C-0.199025 448.304 -0.0482059 448.586 0.173262 448.808C0.394729 449.029 0.676901 449.18 0.984086 449.241C1.29127 449.302 1.60968 449.271 1.89904 449.151C2.1884 449.031 2.43571 448.828 2.60972 448.568C2.78373 448.308 2.87661 448.001 2.87661 447.688C2.87661 447.268 2.70977 446.865 2.41279 446.568C2.11581 446.271 1.71302 446.105 1.29302 446.105Z" fill="#FF7C57"/>
</g>
<g style="mix-blend-mode:multiply" opacity="0.2">
<path d="M-2.82435 439.567C-3.9832 439.567 -5.11602 439.223 -6.07957 438.579C-7.04312 437.935 -7.79411 437.02 -8.23758 435.95C-8.68106 434.879 -8.79709 433.701 -8.57101 432.564C-8.34493 431.428 -7.78689 430.384 -6.96746 429.564C-6.14803 428.745 -5.10401 428.187 -3.96743 427.961C-2.83084 427.735 -1.65275 427.851 -0.58211 428.294C0.488526 428.738 1.40362 429.489 2.04744 430.452C2.69126 431.416 3.0349 432.549 3.0349 433.707C3.0349 435.261 2.41759 436.752 1.31876 437.851C0.219942 438.949 -1.27038 439.567 -2.82435 439.567ZM-2.82435 432.124C-3.13755 432.124 -3.44372 432.217 -3.70414 432.391C-3.96456 432.565 -4.16753 432.812 -4.28739 433.101C-4.40724 433.391 -4.4386 433.709 -4.3775 434.016C-4.3164 434.324 -4.16558 434.606 -3.94411 434.827C-3.72264 435.049 -3.44047 435.199 -3.13329 435.261C-2.8261 435.322 -2.5077 435.29 -2.21833 435.17C-1.92897 435.051 -1.68166 434.848 -1.50765 434.587C-1.33364 434.327 -1.24076 434.021 -1.24076 433.707C-1.24076 433.499 -1.28172 433.294 -1.36131 433.101C-1.44089 432.909 -1.55753 432.735 -1.70458 432.588C-1.85163 432.441 -2.02621 432.324 -2.21833 432.244C-2.41046 432.165 -2.61639 432.124 -2.82435 432.124Z" fill="#FF7C57"/>
</g>
<g style="mix-blend-mode:multiply" opacity="0.2">
<path d="M-0.83344 422.849C-1.99229 422.849 -3.12511 422.505 -4.08866 421.861C-5.05221 421.217 -5.80321 420.302 -6.24668 419.232C-6.69015 418.161 -6.80618 416.983 -6.5801 415.846C-6.35402 414.71 -5.79599 413.666 -4.97656 412.846C-4.15713 412.027 -3.11311 411.469 -1.97653 411.243C-0.839947 411.017 0.338159 411.133 1.4088 411.576C2.47943 412.02 3.39452 412.771 4.03834 413.734C4.68216 414.698 5.02581 415.83 5.02581 416.989C5.02581 418.543 4.40849 420.034 3.30967 421.132C2.21085 422.231 0.720528 422.849 -0.83344 422.849ZM-0.83344 415.406C-1.14664 415.406 -1.45282 415.499 -1.71323 415.673C-1.97365 415.847 -2.17662 416.094 -2.29648 416.383C-2.41634 416.673 -2.4477 416.991 -2.38659 417.298C-2.32549 417.605 -2.17467 417.888 -1.9532 418.109C-1.73174 418.331 -1.44957 418.481 -1.14239 418.542C-0.835204 418.604 -0.516798 418.572 -0.227437 418.452C0.0619249 418.332 0.309249 418.13 0.483255 417.869C0.657261 417.609 0.750133 417.303 0.750133 416.989C0.750133 416.569 0.583293 416.167 0.286314 415.87C-0.0106649 415.573 -0.413449 415.406 -0.83344 415.406Z" fill="#FF7C57"/>
</g>
<g style="mix-blend-mode:multiply" opacity="0.2">
<path d="M17.1514 448.684C15.9925 448.684 14.8597 448.34 13.8961 447.696C12.9326 447.052 12.1816 446.137 11.7381 445.067C11.2947 443.996 11.1786 442.818 11.4047 441.681C11.6308 440.545 12.1888 439.501 13.0082 438.681C13.8277 437.862 14.8717 437.304 16.0083 437.078C17.1449 436.852 18.323 436.968 19.3936 437.411C20.4642 437.855 21.3793 438.606 22.0231 439.569C22.667 440.533 23.0106 441.665 23.0106 442.824C23.0106 444.378 22.3933 445.869 21.2945 446.967C20.1957 448.066 18.7053 448.684 17.1514 448.684ZM17.1514 441.241C16.7314 441.241 16.3286 441.408 16.0316 441.705C15.7346 442.002 15.5678 442.404 15.5678 442.824C15.5678 443.244 15.7346 443.647 16.0316 443.944C16.3286 444.241 16.7314 444.408 17.1514 444.408C17.5714 444.408 17.9741 444.241 18.2711 443.944C18.5681 443.647 18.7349 443.244 18.7349 442.824C18.7349 442.404 18.5681 442.002 18.2711 441.705C17.9741 441.408 17.5714 441.241 17.1514 441.241Z" fill="#FF7C57"/>
</g>
<g style="mix-blend-mode:multiply" opacity="0.2">
<path d="M9.70861 463.411C8.54976 463.411 7.41694 463.067 6.45339 462.423C5.48984 461.78 4.73885 460.864 4.29537 459.794C3.8519 458.723 3.73587 457.545 3.96195 456.409C4.18803 455.272 4.74606 454.228 5.56549 453.408C6.38492 452.589 7.42895 452.031 8.56553 451.805C9.70211 451.579 10.8802 451.695 11.9508 452.138C13.0215 452.582 13.9366 453.333 14.5804 454.296C15.2242 455.26 15.5679 456.393 15.5679 457.552C15.5679 459.106 14.9505 460.596 13.8517 461.695C12.7529 462.794 11.2626 463.411 9.70861 463.411ZM9.70861 455.968C9.28862 455.968 8.88583 456.135 8.58885 456.432C8.29187 456.729 8.12503 457.132 8.12503 457.552C8.12503 457.972 8.29187 458.374 8.58885 458.671C8.88583 458.968 9.28862 459.135 9.70861 459.135C10.1286 459.135 10.5314 458.968 10.8284 458.671C11.1253 458.374 11.2922 457.972 11.2922 457.552C11.2922 457.132 11.1253 456.729 10.8284 456.432C10.5314 456.135 10.1286 455.968 9.70861 455.968Z" fill="#FF7C57"/>
</g>
<g style="mix-blend-mode:multiply" opacity="0.2">
<path d="M13.4187 432.124C12.2589 432.124 11.1252 431.78 10.1612 431.135C9.19712 430.49 8.44614 429.574 8.00334 428.502C7.56054 427.43 7.44584 426.25 7.67376 425.113C7.90168 423.976 8.46197 422.932 9.28367 422.114C10.1054 421.295 11.1515 420.739 12.2896 420.515C13.4276 420.292 14.6064 420.411 15.6767 420.858C16.7469 421.305 17.6604 422.059 18.3015 423.026C18.9426 423.992 19.2824 425.127 19.278 426.287C19.272 427.837 18.652 429.322 17.5539 430.416C16.4557 431.51 14.9688 432.124 13.4187 432.124ZM13.4187 424.681C13.1055 424.681 12.7993 424.774 12.5389 424.948C12.2785 425.122 12.0755 425.369 11.9557 425.659C11.8358 425.948 11.8045 426.266 11.8656 426.574C11.9267 426.881 12.0775 427.163 12.299 427.384C12.5204 427.606 12.8026 427.757 13.1098 427.818C13.417 427.879 13.7354 427.848 14.0247 427.728C14.3141 427.608 14.5614 427.405 14.7354 427.144C14.9094 426.884 15.0023 426.578 15.0023 426.265C15.0023 425.845 14.8355 425.442 14.5385 425.145C14.2415 424.848 13.8387 424.681 13.4187 424.681Z" fill="#FF7C57"/>
</g>
<g style="mix-blend-mode:multiply" opacity="0.2">
<path d="M63.7087 439.114C60.0442 439.12 56.4204 438.347 53.0777 436.845C49.7351 435.344 46.7502 433.148 44.3211 430.405C40.6188 426.208 38.7324 420.714 39.076 415.129C39.4195 409.543 41.9649 404.322 46.1536 400.611C49.5976 397.572 54.1056 396.024 58.6896 396.303C63.2736 396.583 67.5597 398.669 70.6085 402.104C73.1121 404.944 74.3871 408.661 74.1539 412.439C73.9206 416.218 72.1981 419.75 69.3643 422.26C68.1985 423.293 66.8407 424.087 65.3682 424.594C63.8958 425.102 62.3377 425.315 60.783 425.221C59.2283 425.126 57.7074 424.726 56.3074 424.043C54.9074 423.361 53.6556 422.409 52.6236 421.242C50.8834 419.27 49.9965 416.688 50.1577 414.063C50.3189 411.438 51.5149 408.984 53.4833 407.239C54.3059 406.509 55.2659 405.952 56.307 405.598C57.3481 405.245 58.4494 405.103 59.5461 405.18C60.6415 405.246 61.7131 405.528 62.6992 406.009C63.6854 406.491 64.5666 407.162 65.2922 407.986C65.9111 408.684 66.3858 409.498 66.6891 410.38C66.9924 411.263 67.1182 412.197 67.0593 413.128C67.0005 414.059 66.7581 414.97 66.3461 415.807C65.9341 416.645 65.3607 417.392 64.6588 418.007L61.831 414.818C62.3946 414.312 62.7361 413.605 62.7811 412.849C62.8041 412.481 62.754 412.111 62.6336 411.761C62.5133 411.412 62.3251 411.09 62.0798 410.813C61.7262 410.41 61.2964 410.08 60.815 409.843C60.3335 409.607 59.8101 409.467 59.2746 409.433C58.7413 409.398 58.2063 409.47 57.7012 409.645C57.1961 409.82 56.7312 410.094 56.3337 410.451C55.7779 410.939 55.3239 411.532 54.9978 412.195C54.6718 412.859 54.4802 413.58 54.4339 414.318C54.3877 415.056 54.4877 415.796 54.7284 416.495C54.969 417.194 55.3454 417.839 55.836 418.392C56.4918 419.139 57.2886 419.749 58.1805 420.187C59.0725 420.626 60.0422 420.884 61.0341 420.947C62.026 421.01 63.0206 420.877 63.9609 420.555C64.9012 420.233 65.7688 419.728 66.5139 419.071C68.4994 417.309 69.7068 414.832 69.8721 412.183C70.0375 409.534 69.1473 406.927 67.3961 404.931C65.0999 402.347 61.8733 400.776 58.4223 400.564C54.9713 400.353 51.5768 401.516 48.9814 403.8C45.6442 406.766 43.6181 410.933 43.3468 415.389C43.0754 419.846 44.5809 424.228 47.5335 427.577C51.3239 431.861 56.6602 434.466 62.3699 434.818C68.0796 435.17 73.6955 433.241 77.9835 429.454C83.4425 424.62 86.7608 417.818 87.2104 410.54C87.66 403.262 85.204 396.103 80.3815 390.634C74.2422 383.704 65.6058 379.491 56.3654 378.919C47.125 378.346 38.0346 381.461 31.0869 387.58L28.2591 384.39C36.0546 377.522 46.2565 374.026 56.6263 374.671C66.9961 375.315 76.6866 380.048 83.5713 387.829C86.3492 390.949 88.4823 394.588 89.8479 398.536C91.2134 402.484 91.7843 406.664 91.5278 410.834C91.2713 415.003 90.1923 419.081 88.3531 422.832C86.5139 426.583 83.9508 429.933 80.8113 432.689C76.0887 436.852 70.0037 439.138 63.7087 439.114Z" fill="#FF7C57"/>
</g>
<g style="mix-blend-mode:multiply" opacity="0.2">
<path d="M114.542 441.919C110.017 424.093 86.6932 425.541 85.6978 425.609L85.381 421.333C85.6525 421.333 113.32 419.546 118.681 440.879L114.542 441.919Z" fill="#FF7C57"/>
</g>
<g style="mix-blend-mode:multiply" opacity="0.2">
<path d="M114.836 434.884L110.651 433.956C112.302 426.491 111.465 420.903 108.139 417.329C102.144 410.859 89.7926 412.555 89.6568 412.578L89.046 408.348C89.6342 408.348 103.728 406.289 111.261 414.41C115.537 419.071 116.804 425.971 114.836 434.884Z" fill="#FF7C57"/>
</g>
<g style="mix-blend-mode:multiply" opacity="0.2">
<path d="M114.474 422.826L110.356 421.672C112.37 414.478 111.782 408.891 108.569 404.999C102.099 397.127 86.8968 398.213 86.7384 398.213L86.3765 393.96C87.1004 393.96 103.954 392.602 111.872 402.194C116.012 407.284 116.894 414.207 114.474 422.826Z" fill="#FF7C57"/>
</g>
<g style="mix-blend-mode:multiply" opacity="0.2">
<path d="M114.361 405.316L110.085 404.999C110.673 397.376 108.886 391.81 104.746 388.44C95.4254 380.816 77.0107 385.951 76.8297 385.996L75.6533 381.879C76.4904 381.653 96.3756 376.088 107.461 385.114C112.732 389.435 115.062 396.244 114.361 405.316Z" fill="#FF7C57"/>
</g>
<g style="mix-blend-mode:multiply" opacity="0.2">
<path d="M104.746 387.399C101.466 377.898 96.4661 372.106 89.8829 370.183C76.7844 366.383 61.2427 378.78 61.0617 378.78L58.3923 375.432C59.0936 374.866 75.8569 361.677 91.0593 366.089C99.0677 368.351 105.04 375.138 108.795 386.019L104.746 387.399Z" fill="#FF7C57"/>
</g>
<g style="mix-blend-mode:multiply" opacity="0.2">
<path d="M41.1313 381.042L37.4664 378.78C37.9415 378.011 49.0492 359.867 65.6768 357.424C74.0245 356.18 82.2139 359.121 89.9734 366.179L87.1004 369.346C80.3136 363.193 73.3232 360.614 66.3102 361.655C51.6508 363.736 41.2444 380.748 41.1313 381.042Z" fill="#FF7C57"/>
</g>
<g style="mix-blend-mode:multiply" opacity="0.2">
<path d="M110.583 444.385C93.48 444.385 83.5713 424.93 83.4355 424.704L87.2588 422.803C87.6886 423.686 98.2759 444.363 115.989 439.318L117.166 443.435C115.026 444.056 112.81 444.375 110.583 444.385Z" fill="#FF7C57"/>
</g>
<g style="mix-blend-mode:multiply" opacity="0.2">
<path d="M93.8871 450.968C92.7074 450.976 91.5307 450.847 90.3806 450.584C79.5897 448.095 74.2508 434.929 74.0245 434.363L78.0061 432.78C78.0061 432.916 82.7568 444.453 91.3534 446.353C96.1042 447.417 101.375 445.358 106.986 440.2L109.881 443.367C104.407 448.457 99.0451 450.968 93.8871 450.968Z" fill="#FF7C57"/>
</g>
<g style="mix-blend-mode:multiply" opacity="0.2">
<path d="M82.9378 457.393C82.0131 457.398 81.0896 457.322 80.1779 457.167C67.8938 455.108 60.5868 439.861 60.2927 439.227L64.1611 437.395C64.1611 437.531 70.8348 451.263 80.9018 452.959C85.8335 453.774 91.0141 451.489 96.2173 446.172L99.2713 449.181C93.9098 454.633 88.3899 457.393 82.9378 457.393Z" fill="#FF7C57"/>
</g>
<g style="mix-blend-mode:multiply" opacity="0.2">
<path d="M70.2918 462.755C68.1671 462.764 66.0611 462.357 64.0932 461.556C50.2935 456.036 45.3391 433.3 45.1355 432.35L49.3207 431.445C49.3207 431.671 54.0035 452.937 65.6768 457.597C70.3597 459.452 75.7212 458.343 81.6709 454.271L84.0916 457.8C80.1004 460.813 75.2877 462.541 70.2918 462.755Z" fill="#FF7C57"/>
</g>
<g style="mix-blend-mode:multiply" opacity="0.2">
<path d="M76.038 427.667C75.0084 427.667 73.997 427.396 73.1056 426.88C72.2143 426.365 71.4744 425.624 70.9607 424.732C70.4469 423.84 70.1773 422.828 70.179 421.798C70.1808 420.768 70.4538 419.757 70.9706 418.867C71.7506 417.523 73.0325 416.544 74.5343 416.145C76.0362 415.746 77.6349 415.961 78.9789 416.74C79.649 417.117 80.2354 417.626 80.7021 418.237C81.1689 418.847 81.5062 419.547 81.6936 420.292C81.926 421.16 81.9558 422.069 81.7806 422.951C81.6054 423.832 81.23 424.661 80.6833 425.373C80.1367 426.086 79.4334 426.664 78.6279 427.062C77.8225 427.459 76.9363 427.667 76.038 427.667ZM76.038 420.224H75.6308C75.2279 420.338 74.8862 420.606 74.6807 420.971C74.5721 421.149 74.5019 421.347 74.4746 421.554C74.4474 421.76 74.4636 421.97 74.5223 422.17C74.5698 422.37 74.6587 422.558 74.7834 422.722C74.9081 422.885 75.0658 423.021 75.2462 423.12C75.424 423.229 75.6225 423.299 75.829 423.326C76.0354 423.353 76.2454 423.337 76.4452 423.278C76.6474 423.229 76.8377 423.139 77.0047 423.015C77.1718 422.89 77.3123 422.734 77.418 422.554C77.6273 422.191 77.6843 421.76 77.5763 421.355C77.4575 420.949 77.1912 420.603 76.8298 420.383C76.583 420.265 76.311 420.211 76.038 420.224Z" fill="#FF7C57"/>
</g>
<g style="mix-blend-mode:multiply" opacity="0.2">
<path d="M66.7175 413.709C65.6913 413.712 64.6834 413.438 63.7992 412.917C63.0968 412.552 62.4757 412.049 61.9734 411.437C61.471 410.825 61.0978 410.118 60.8763 409.358C60.6548 408.598 60.5896 407.801 60.6845 407.015C60.7795 406.23 61.0327 405.471 61.4289 404.786C61.8251 404.101 62.356 403.503 62.9896 403.028C63.6233 402.554 64.3464 402.213 65.1155 402.025C65.8846 401.838 66.6837 401.809 67.4645 401.939C68.2453 402.069 68.9916 402.356 69.6584 402.782C70.3353 403.157 70.9311 403.662 71.4117 404.269C71.8922 404.875 72.2479 405.571 72.4582 406.315C72.6686 407.06 72.7294 407.839 72.6371 408.607C72.5448 409.375 72.3013 410.117 71.9207 410.791C71.3942 411.699 70.6336 412.448 69.7183 412.962C68.803 413.475 67.7666 413.733 66.7175 413.709ZM66.7175 406.266C66.4314 406.253 66.1471 406.318 65.8949 406.453C65.6426 406.589 65.4319 406.791 65.2851 407.037C65.1383 407.282 65.061 407.564 65.0613 407.85C65.0616 408.136 65.1396 408.417 65.287 408.663C65.4343 408.908 65.6455 409.11 65.8981 409.245C66.1506 409.38 66.4351 409.444 66.7211 409.43C67.0072 409.416 67.2842 409.325 67.5226 409.166C67.7609 409.008 67.9518 408.787 68.0748 408.528C68.1921 408.344 68.2707 408.138 68.3057 407.923C68.3407 407.708 68.3315 407.487 68.2786 407.276C68.2256 407.064 68.1301 406.865 67.9979 406.692C67.8656 406.518 67.6994 406.373 67.5093 406.266C67.2565 406.206 66.9929 406.206 66.7401 406.266H66.7175Z" fill="#FF7C57"/>
</g>
<g style="mix-blend-mode:multiply" opacity="0.2">
<path d="M52.5331 410.293C51.2448 410.286 49.9947 409.854 48.9764 409.065C47.9581 408.276 47.2284 407.173 46.9001 405.927C46.6052 404.812 46.647 403.636 47.0201 402.545C47.3932 401.454 48.081 400.498 48.9966 399.798C49.9123 399.098 51.0148 398.684 52.1652 398.61C53.3156 398.535 54.4622 398.803 55.4606 399.379C56.459 399.956 57.2643 400.815 57.7751 401.848C58.2858 402.882 58.4791 404.043 58.3305 405.186C58.1819 406.329 57.6981 407.403 56.9401 408.272C56.1822 409.14 55.184 409.765 54.0714 410.067C53.571 410.21 53.0537 410.286 52.5331 410.293ZM52.5331 402.85C52.2563 402.849 51.9838 402.919 51.742 403.053C51.5002 403.188 51.2974 403.383 51.1531 403.619C50.9448 403.991 50.888 404.429 50.9948 404.841C51.1083 405.244 51.3767 405.586 51.7413 405.791C51.9267 405.908 52.134 405.985 52.3503 406.018C52.5666 406.052 52.7875 406.04 52.9994 405.985C53.2112 405.93 53.4096 405.832 53.5823 405.698C53.755 405.563 53.8983 405.395 54.0036 405.203C54.2018 404.836 54.2582 404.41 54.1619 404.004C54.0485 403.601 53.78 403.259 53.4154 403.054C53.1526 402.909 52.8555 402.839 52.5557 402.85H52.5331Z" fill="#FF7C57"/>
</g>
<g style="mix-blend-mode:multiply" opacity="0.2">
<path d="M49.3208 426.649C48.2946 426.652 47.2866 426.378 46.4024 425.857C45.7256 425.483 45.1297 424.977 44.6492 424.371C44.1686 423.765 43.8129 423.069 43.6026 422.325C43.3923 421.58 43.3315 420.801 43.4238 420.033C43.516 419.265 43.7595 418.523 44.1402 417.849C44.5228 417.184 45.0338 416.601 45.6436 416.135C46.2533 415.669 46.9496 415.329 47.6919 415.134C48.4982 414.916 49.3419 414.873 50.1663 415.007C50.9907 415.142 51.7769 415.451 52.472 415.914C53.1671 416.377 53.7552 416.984 54.1967 417.693C54.6383 418.402 54.9231 419.197 55.0321 420.025C55.1412 420.853 55.0718 421.695 54.8288 422.495C54.5858 423.294 54.1747 424.032 53.6231 424.659C53.0715 425.286 52.3922 425.788 51.6306 426.132C50.8691 426.475 50.043 426.651 49.2076 426.649H49.3208ZM48.5516 422.125C48.7346 422.245 48.9407 422.327 49.1568 422.363C49.3729 422.4 49.5942 422.392 49.8069 422.339C50.0195 422.285 50.2188 422.189 50.3922 422.055C50.5655 421.92 50.7091 421.752 50.8138 421.559C50.9317 421.379 51.0116 421.177 51.0486 420.965C51.0857 420.753 51.0791 420.535 51.0293 420.326C50.9795 420.116 50.8875 419.919 50.759 419.747C50.6304 419.574 50.468 419.429 50.2817 419.321C50.0953 419.214 49.889 419.145 49.6752 419.12C49.4614 419.094 49.2447 419.113 49.0383 419.174C48.8319 419.235 48.6402 419.338 48.4748 419.476C48.3095 419.613 48.1739 419.784 48.0765 419.976C47.9721 420.155 47.9044 420.353 47.8774 420.559C47.8505 420.764 47.8648 420.973 47.9196 421.174C47.9743 421.374 48.0684 421.561 48.1964 421.724C48.3243 421.887 48.4835 422.024 48.6647 422.125H48.5516Z" fill="#FF7C57"/>
</g>
<g style="mix-blend-mode:multiply" opacity="0.2">
<path d="M61.2428 435.653C59.9535 435.65 58.7015 435.219 57.6825 434.43C56.6634 433.64 55.9346 432.535 55.6098 431.287C55.3029 430.168 55.3363 428.983 55.7057 427.884C56.0751 426.784 56.7638 425.82 57.6839 425.113C58.604 424.407 59.7137 423.991 60.8714 423.918C62.0291 423.845 63.1823 424.118 64.1837 424.704C64.8605 425.079 65.4564 425.584 65.937 426.19C66.4175 426.796 66.7732 427.492 66.9835 428.236C67.1939 428.981 67.2546 429.76 67.1624 430.528C67.0701 431.296 66.8266 432.038 66.446 432.712C66.0667 433.382 65.557 433.97 64.947 434.44C64.337 434.91 63.639 435.253 62.8942 435.449C62.3562 435.595 61.8002 435.664 61.2428 435.653ZM61.2428 428.188C61.1079 428.166 60.9705 428.166 60.8356 428.188C60.6314 428.237 60.4394 428.328 60.271 428.454C60.1027 428.579 59.9615 428.738 59.8558 428.92C59.7502 429.101 59.6824 429.302 59.6563 429.511C59.6303 429.719 59.6467 429.931 59.7044 430.133C59.8179 430.536 60.0863 430.878 60.451 431.083C60.814 431.293 61.2451 431.35 61.65 431.242C62.056 431.123 62.4029 430.856 62.6228 430.495C62.8245 430.129 62.8733 429.698 62.7585 429.296C62.711 429.096 62.6221 428.908 62.4974 428.744C62.3727 428.58 62.215 428.445 62.0346 428.346C61.7875 428.229 61.5157 428.175 61.2428 428.188Z" fill="#FF7C57"/>
</g>
<g style="mix-blend-mode:multiply" opacity="0.2">
<path d="M39.0727 400.203C38.0468 400.204 37.0394 399.93 36.1544 399.412C35.1443 398.845 34.3247 397.992 33.799 396.96C33.2734 395.929 33.0653 394.764 33.201 393.614C33.3368 392.464 33.8102 391.38 34.5616 390.499C35.3131 389.618 36.3087 388.979 37.4229 388.663C38.5371 388.348 39.7198 388.369 40.8217 388.726C41.9236 389.082 42.8953 389.756 43.614 390.664C44.3327 391.572 44.7663 392.673 44.8599 393.827C44.9536 394.981 44.7031 396.137 44.1401 397.149C43.6279 398.041 42.8899 398.782 42.0004 399.299C41.1109 399.815 40.1011 400.088 39.0727 400.09V400.203ZM39.0727 392.738H38.6655C38.4668 392.789 38.2804 392.88 38.1173 393.004C37.9541 393.128 37.8174 393.284 37.7153 393.462C37.5787 393.73 37.5214 394.032 37.5501 394.332C37.5789 394.632 37.6926 394.917 37.8778 395.154C38.063 395.392 38.3122 395.572 38.5959 395.673C38.8797 395.773 39.1863 395.791 39.4799 395.724C39.7811 395.642 40.0515 395.474 40.2571 395.239C40.4627 395.004 40.5943 394.714 40.6354 394.404C40.6764 394.095 40.6252 393.78 40.488 393.5C40.3509 393.219 40.134 392.986 39.8645 392.828C39.6117 392.735 39.34 392.704 39.0727 392.738Z" fill="#FF7C57"/>
</g>
<g style="mix-blend-mode:multiply" opacity="0.2">
<path d="M70.4275 397.557C69.4021 397.554 68.3955 397.28 67.5092 396.765C66.1652 395.987 65.1817 394.711 64.7718 393.213C64.5584 392.458 64.5005 391.668 64.6016 390.89C64.7027 390.113 64.9607 389.364 65.36 388.689C65.876 387.799 66.6168 387.062 67.5081 386.549C68.3993 386.037 69.4097 385.768 70.4376 385.77C71.4656 385.772 72.475 386.044 73.3645 386.559C74.254 387.075 74.9924 387.815 75.5053 388.706C76.0183 389.596 76.2879 390.607 76.287 391.635C76.2861 392.662 76.0148 393.672 75.5003 394.562C74.9858 395.452 74.2462 396.191 73.3558 396.705C72.4653 397.218 71.4555 397.489 70.4275 397.489V397.557ZM70.4275 390.114C70.1845 390.111 69.9444 390.166 69.7261 390.273C69.5079 390.379 69.3176 390.536 69.1704 390.729C69.0232 390.922 68.9232 391.147 68.8783 391.386C68.8334 391.625 68.8449 391.871 68.9118 392.105C68.9593 392.305 69.0482 392.493 69.1729 392.656C69.2976 392.82 69.4553 392.956 69.6357 393.055C69.8158 393.173 70.0181 393.252 70.2302 393.289C70.4423 393.327 70.6597 393.32 70.8691 393.27C71.0785 393.22 71.2756 393.128 71.4483 393C71.621 392.871 71.7656 392.709 71.8734 392.522C71.9812 392.336 72.0499 392.13 72.0752 391.916C72.1006 391.702 72.0821 391.486 72.0209 391.279C71.9597 391.073 71.857 390.881 71.7192 390.716C71.5814 390.55 71.4113 390.415 71.2193 390.317C70.9787 390.176 70.7063 390.098 70.4275 390.091V390.114Z" fill="#FF7C57"/>
</g>
<g style="mix-blend-mode:multiply" opacity="0.2">
<path d="M79.454 411.356C78.1667 411.348 76.9174 410.919 75.8964 410.135C74.8754 409.351 74.1387 408.254 73.7984 407.013C73.4765 405.825 73.5353 404.566 73.9665 403.414C74.3977 402.261 75.1795 401.273 76.2019 400.588C77.2243 399.903 78.4357 399.556 79.6657 399.596C80.8956 399.636 82.0821 400.06 83.0581 400.81C84.0341 401.559 84.7504 402.596 85.1062 403.774C85.462 404.952 85.4393 406.212 85.0413 407.377C84.6434 408.541 83.8903 409.551 82.8879 410.265C81.8856 410.979 80.6846 411.361 79.454 411.356ZM79.454 403.914C79.1026 403.91 78.7601 404.024 78.4804 404.236C78.2007 404.449 77.9996 404.749 77.9089 405.088C77.8182 405.428 77.843 405.788 77.9794 406.112C78.1158 406.435 78.356 406.705 78.6622 406.877C78.8466 406.997 79.054 407.077 79.271 407.112C79.4881 407.147 79.7101 407.137 79.9229 407.081C80.1357 407.026 80.3347 406.927 80.5071 406.791C80.6796 406.654 80.8217 406.483 80.9244 406.289C81.0417 406.105 81.1203 405.899 81.1553 405.684C81.1903 405.468 81.1811 405.248 81.1281 405.036C81.0752 404.824 80.9797 404.626 80.8475 404.452C80.7152 404.279 80.549 404.134 80.3589 404.027C80.0807 403.909 79.7755 403.87 79.4766 403.914H79.454Z" fill="#FF7C57"/>
</g>
<g style="mix-blend-mode:multiply" opacity="0.2">
<path d="M54.2298 392.489C52.7421 392.493 51.3087 391.931 50.2202 390.917C49.1318 389.903 48.4698 388.513 48.3686 387.029C48.2674 385.544 48.7345 384.077 49.6752 382.925C50.6159 381.772 51.9598 381.021 53.4342 380.823C54.9086 380.625 56.4031 380.995 57.6146 381.858C58.8261 382.722 59.6638 384.013 59.9579 385.472C60.2519 386.93 59.9803 388.446 59.198 389.711C58.4157 390.976 57.1814 391.897 55.7455 392.286C55.2515 392.42 54.7418 392.489 54.2298 392.489ZM54.2298 385.046H53.8226C53.515 385.124 53.2379 385.292 53.027 385.529C52.8161 385.766 52.6812 386.06 52.6397 386.375C52.5983 386.689 52.6522 387.009 52.7945 387.292C52.9369 387.576 53.161 387.81 53.438 387.965C53.801 388.174 54.2321 388.231 54.637 388.123C54.9445 388.045 55.2217 387.877 55.4326 387.64C55.6435 387.404 55.7784 387.109 55.8198 386.794C55.8612 386.48 55.8073 386.16 55.665 385.877C55.5227 385.593 55.2985 385.359 55.0216 385.205C54.7748 385.087 54.5027 385.033 54.2298 385.046Z" fill="#FF7C57"/>
</g>
<g style="mix-blend-mode:multiply" opacity="0.2">
<path d="M69.0702 362.356C64.2022 362.351 59.4848 360.668 55.7139 357.589C51.943 354.51 49.3493 350.225 48.3705 345.457C47.4901 340.959 48.4226 336.295 50.9649 332.482C53.5073 328.668 57.4535 326.014 61.9441 325.097C65.6545 324.349 69.5098 325.103 72.6649 327.194C75.82 329.285 78.0174 332.541 78.7753 336.249C79.0889 337.775 79.0982 339.348 78.8025 340.877C78.5069 342.407 77.9122 343.862 77.0525 345.161C76.1928 346.46 75.0852 347.577 73.793 348.447C72.5008 349.316 71.0496 349.923 69.5227 350.23C68.248 350.491 66.9344 350.497 65.6572 350.25C64.38 350.002 63.1643 349.504 62.0798 348.785C60.9954 348.066 60.0634 347.141 59.3375 346.061C58.6115 344.981 58.1059 343.769 57.8494 342.493C57.4091 340.324 57.848 338.069 59.0698 336.224C60.2915 334.379 62.1961 333.094 64.3647 332.652C66.1869 332.282 68.0819 332.64 69.6427 333.651C71.2035 334.662 72.3056 336.245 72.7124 338.059L68.5273 338.919C68.4596 338.549 68.3188 338.196 68.1129 337.881C67.9071 337.566 67.6405 337.295 67.3287 337.084C67.0168 336.873 66.6661 336.727 66.297 336.654C65.9279 336.58 65.5478 336.581 65.1791 336.657C64.6539 336.758 64.1545 336.964 63.7113 337.264C63.268 337.563 62.89 337.949 62.6001 338.399C62.3018 338.842 62.0942 339.34 61.9894 339.865C61.8845 340.389 61.8845 340.928 61.9893 341.453C62.2893 342.918 63.1575 344.205 64.404 345.032C65.6505 345.858 67.1737 346.158 68.6404 345.864C70.6039 345.462 72.3284 344.299 73.4364 342.629C73.9926 341.801 74.3773 340.87 74.5677 339.891C74.7581 338.912 74.7503 337.904 74.5449 336.928C74.2858 335.641 73.775 334.417 73.0419 333.327C72.3087 332.237 71.3676 331.303 70.2725 330.578C69.1775 329.853 67.95 329.351 66.6606 329.101C65.3711 328.852 64.0451 328.859 62.7585 329.123C59.3746 329.816 56.4031 331.821 54.4949 334.7C52.5868 337.58 51.8976 341.098 52.5783 344.484C53.467 348.858 56.0563 352.699 59.7769 355.164C63.4974 357.629 68.0445 358.515 72.4183 357.628C78.0208 356.483 82.9408 353.163 86.1 348.397C89.2592 343.63 90.3999 337.806 89.2721 332.2C87.7647 325.096 83.5133 318.873 77.4425 314.887C71.3717 310.9 63.9725 309.472 56.854 310.912C47.7927 312.751 39.831 318.109 34.716 325.811C29.601 333.513 27.7507 342.93 29.5712 351.995L25.386 352.832C24.3592 347.789 24.3365 342.592 25.3194 337.54C26.3023 332.488 28.2714 327.68 31.1142 323.389C33.9569 319.099 37.6176 315.411 41.8867 312.536C46.1559 309.662 50.9498 307.657 55.9944 306.637C64.262 304.97 72.8531 306.655 79.8784 311.322C86.9037 315.989 91.788 323.254 93.4573 331.521C94.8127 338.24 93.4499 345.222 89.6676 350.938C85.8853 356.654 79.9918 360.637 73.278 362.017C71.8892 362.261 70.4803 362.375 69.0702 362.356Z" fill="#FF7C57"/>
</g>
<g style="mix-blend-mode:multiply" opacity="0.2">
<path d="M89.7924 323.716L85.9466 321.839C86.0823 321.59 98.3664 296.75 119.518 302.791L118.342 306.908C100.674 301.863 90.2449 322.812 89.7924 323.716Z" fill="#FF7C57"/>
</g>
<g style="mix-blend-mode:multiply" opacity="0.2">
<path d="M80.4946 313.763L76.5356 312.179C76.7619 311.613 82.1008 298.447 92.8918 295.981C99.113 294.556 105.674 296.954 112.392 303.13L109.497 306.388C103.886 301.23 98.6153 299.171 93.8645 300.257C85.2679 302.089 80.5398 313.649 80.4946 313.763Z" fill="#FF7C57"/>
</g>
<g style="mix-blend-mode:multiply" opacity="0.2">
<path d="M66.6496 309.148L62.7811 307.338C63.0978 306.682 70.4049 291.502 82.689 289.375C89.0912 288.29 95.5386 291.004 101.782 297.406L98.7284 300.393C93.5026 295.054 88.3673 292.769 83.4129 293.606C73.3459 295.28 66.7175 309.012 66.6496 309.148Z" fill="#FF7C57"/>
</g>
<g style="mix-blend-mode:multiply" opacity="0.2">
<path d="M51.0626 311.591L46.9227 310.55C47.1263 309.713 52.2616 289.692 65.6089 284.625C71.9885 282.204 79.0467 283.584 86.5574 288.765L84.1368 292.271C77.8477 287.973 72.1242 286.729 67.1472 288.629C55.8812 292.814 51.1078 311.41 51.0626 311.591Z" fill="#FF7C57"/>
</g>
<g style="mix-blend-mode:multiply" opacity="0.2">
<path d="M32.7157 322.223C32.58 321.341 29.5033 300.234 40.9277 289.262C46.9453 283.471 55.7455 281.661 67.0568 283.878L66.2424 288.063C56.3789 286.163 48.8682 287.588 43.9139 292.339C34.0731 301.773 36.9009 321.386 36.9461 321.59L32.7157 322.223Z" fill="#FF7C57"/>
</g>
<g style="mix-blend-mode:multiply" opacity="0.2">
<path d="M25.0467 342.018C24.5942 341.249 14.4367 322.54 20.6353 306.908C23.7572 299.058 30.3856 293.47 40.3621 290.258L41.6742 294.33C32.9872 297.112 27.241 301.886 24.6168 308.469C19.1648 322.223 28.6889 339.778 28.7794 339.959L25.0467 342.018Z" fill="#FF7C57"/>
</g>
<g style="mix-blend-mode:multiply" opacity="0.2">
<path d="M89.159 325.232H87.9148L88.1863 320.979C89.1817 320.979 112.37 322.201 116.872 304.352L121.012 305.392C116.329 324.056 94.6337 325.232 89.159 325.232Z" fill="#FF7C57"/>
</g>
<g style="mix-blend-mode:multiply" opacity="0.2">
<path d="M95.9458 338.466C94.4792 338.472 93.0136 338.389 91.557 338.218L92.1678 333.965C92.3036 333.965 104.655 335.684 110.65 329.214C113.976 325.639 114.813 320.052 113.162 312.609L117.347 311.681C119.315 320.595 118.116 327.517 113.772 332.042C108.75 337.539 100.855 338.466 95.9458 338.466Z" fill="#FF7C57"/>
</g>
<g style="mix-blend-mode:multiply" opacity="0.2">
<path d="M91.5118 352.606C90.0187 352.606 89.0459 352.606 88.8876 352.606L89.2495 348.33C89.3853 348.33 104.588 349.484 111.08 341.543C114.27 337.675 114.881 332.064 112.867 324.87L116.985 323.717C119.405 332.336 118.523 339.258 114.383 344.28C108.23 351.633 96.715 352.606 91.5118 352.606Z" fill="#FF7C57"/>
</g>
<g style="mix-blend-mode:multiply" opacity="0.2">
<path d="M93.5478 365.206C87.4097 365.088 81.3181 364.114 75.4497 362.311L76.7844 358.239C76.9881 358.239 97.7329 365.025 107.596 357.153C111.555 354.031 113.275 348.828 112.709 341.656L116.985 341.317C117.663 350.004 115.379 356.474 110.198 360.523C105.318 363.883 99.463 365.53 93.5478 365.206Z" fill="#FF7C57"/>
</g>
<g style="mix-blend-mode:multiply" opacity="0.2">
<path d="M81.6031 336.046C81.0911 336.046 80.5812 335.978 80.0874 335.842C78.964 335.546 77.954 334.922 77.1858 334.051C76.4176 333.179 75.9259 332.099 75.7732 330.947C75.6204 329.795 75.8135 328.624 76.3279 327.582C76.8424 326.541 77.6548 325.675 78.6622 325.096C79.3372 324.697 80.0864 324.439 80.8641 324.338C81.6418 324.237 82.432 324.295 83.1867 324.508C84.3087 324.807 85.3165 325.433 86.0821 326.306C86.8478 327.179 87.3368 328.26 87.4871 329.411C87.6374 330.563 87.4422 331.733 86.9262 332.773C86.4103 333.813 85.5969 334.677 84.5893 335.254C83.6831 335.781 82.6516 336.055 81.6031 336.046ZM81.6031 328.58C81.3229 328.578 81.0478 328.656 80.8114 328.807C80.6276 328.904 80.4662 329.039 80.3377 329.203C80.2091 329.366 80.1162 329.555 80.0648 329.757C79.96 330.161 80.0172 330.591 80.2242 330.954C80.4312 331.318 80.7717 331.586 81.1733 331.702C81.5857 331.809 82.0234 331.752 82.3949 331.544C82.5736 331.437 82.7295 331.296 82.8537 331.13C82.9779 330.963 83.068 330.773 83.1188 330.571C83.1775 330.371 83.1938 330.161 83.1665 329.955C83.1392 329.748 83.0691 329.55 82.9605 329.372C82.8227 329.133 82.625 328.935 82.387 328.796C82.1489 328.657 81.8787 328.583 81.6031 328.58Z" fill="#FF7C57"/>
</g>
<g style="mix-blend-mode:multiply" opacity="0.2">
<path d="M64.9529 337.109C63.5367 337.104 62.1708 336.584 61.1097 335.646C60.0486 334.708 59.3647 333.416 59.1854 332.011C59.0061 330.607 59.3437 329.185 60.1352 328.01C60.9267 326.836 62.1181 325.99 63.4875 325.629C64.8569 325.268 66.3108 325.417 67.5783 326.049C68.8458 326.68 69.8404 327.751 70.3768 329.062C70.9132 330.372 70.9548 331.833 70.4938 333.172C70.0328 334.511 69.1007 335.637 67.8712 336.34C66.9811 336.844 65.9757 337.109 64.9529 337.109ZM64.9529 329.666C64.6808 329.671 64.4151 329.749 64.1837 329.892C63.9999 329.99 63.8386 330.125 63.71 330.289C63.5815 330.452 63.4885 330.641 63.4372 330.843C63.3644 331.138 63.3781 331.448 63.4766 331.735C63.5752 332.023 63.7545 332.276 63.993 332.464C64.2315 332.653 64.5193 332.769 64.8219 332.798C65.1245 332.827 65.4291 332.769 65.6994 332.63C65.8895 332.523 66.0557 332.378 66.188 332.204C66.3202 332.031 66.4158 331.832 66.4687 331.62C66.5216 331.409 66.5308 331.188 66.4958 330.973C66.4608 330.758 66.3822 330.552 66.265 330.368C66.1629 330.19 66.0262 330.034 65.863 329.91C65.6999 329.785 65.5135 329.695 65.3148 329.644C65.1862 329.634 65.0568 329.641 64.9302 329.666H64.9529Z" fill="#FF7C57"/>
</g>
<g style="mix-blend-mode:multiply" opacity="0.2">
<path d="M54.8858 347.674C54.0505 347.676 53.2243 347.5 52.4628 347.156C51.7013 346.813 51.0219 346.311 50.4703 345.684C49.9187 345.056 49.5076 344.318 49.2646 343.519C49.0216 342.72 48.9523 341.878 49.0613 341.05C49.1703 340.222 49.4551 339.426 49.8967 338.717C50.3382 338.008 50.9263 337.402 51.6214 336.939C52.3166 336.475 53.1027 336.166 53.9271 336.032C54.7515 335.897 55.5952 335.941 56.4015 336.159C57.1463 336.355 57.8442 336.698 58.4542 337.168C59.0642 337.638 59.5739 338.226 59.9532 338.896C60.3339 339.57 60.5774 340.312 60.6697 341.08C60.7619 341.848 60.7011 342.627 60.4908 343.372C60.2805 344.116 59.9248 344.812 59.4442 345.418C58.9637 346.025 58.3678 346.53 57.691 346.905C56.8354 347.393 55.8706 347.657 54.8858 347.674ZM54.8858 340.231C54.6055 340.228 54.3305 340.307 54.094 340.457C53.7293 340.663 53.4609 341.004 53.3475 341.407C53.2512 341.813 53.3075 342.24 53.5058 342.606C53.6086 342.801 53.7507 342.972 53.9231 343.108C54.0956 343.245 54.2945 343.344 54.5073 343.399C54.7202 343.454 54.9422 343.465 55.1592 343.429C55.3763 343.394 55.5836 343.314 55.7681 343.195C56.1341 342.98 56.402 342.631 56.5146 342.222C56.6088 341.816 56.5525 341.39 56.3562 341.023C56.1943 340.787 55.9731 340.598 55.715 340.475C55.4569 340.352 55.1709 340.299 54.8858 340.321V340.231Z" fill="#FF7C57"/>
</g>
<g style="mix-blend-mode:multiply" opacity="0.2">
<path d="M67.464 358.668C66.9444 358.669 66.4271 358.601 65.9256 358.465C64.4245 358.057 63.1462 357.071 62.3703 355.723C61.5945 354.374 61.3842 352.774 61.7857 351.271C61.9853 350.528 62.3299 349.831 62.7997 349.222C63.2695 348.612 63.8551 348.101 64.523 347.719C65.1971 347.317 65.9463 347.058 66.7244 346.957C67.5026 346.855 68.2932 346.915 69.0475 347.131C69.7916 347.328 70.4893 347.67 71.1006 348.137C71.7119 348.605 72.2247 349.189 72.6095 349.855C72.9942 350.522 73.2434 351.258 73.3426 352.021C73.4418 352.784 73.3891 353.559 73.1875 354.302C72.9968 355.049 72.6583 355.75 72.192 356.364C71.7257 356.978 71.1412 357.492 70.4728 357.877C69.5587 358.405 68.5197 358.678 67.464 358.668ZM67.464 351.203C67.1184 351.21 66.7842 351.328 66.5112 351.54C66.2381 351.752 66.0407 352.046 65.9483 352.379C65.8896 352.579 65.8733 352.789 65.9006 352.996C65.9279 353.202 65.9981 353.401 66.1066 353.578C66.2067 353.775 66.3475 353.949 66.5197 354.087C66.6919 354.226 66.8915 354.326 67.1053 354.382C67.3192 354.437 67.5424 354.447 67.7602 354.41C67.978 354.373 68.1855 354.29 68.3689 354.166C68.7349 353.952 69.0028 353.603 69.1154 353.194C69.2209 352.789 69.1641 352.359 68.9571 351.995C68.7363 351.639 68.3886 351.38 67.9843 351.271C67.8103 351.21 67.6251 351.186 67.4413 351.203H67.464Z" fill="#FF7C57"/>
</g>
<g style="mix-blend-mode:multiply" opacity="0.2">
<path d="M81.1507 352.922C80.6387 352.921 80.129 352.853 79.6349 352.719C78.223 352.333 77.0103 351.425 76.2425 350.179C75.4748 348.933 75.2095 347.442 75.5003 346.007C75.791 344.573 76.6162 343.303 77.8086 342.454C79.001 341.605 80.4714 341.241 81.922 341.436C83.3727 341.631 84.695 342.37 85.6211 343.503C86.5472 344.637 87.0079 346.08 86.9098 347.54C86.8118 349 86.1622 350.369 85.0929 351.368C84.0235 352.368 82.6143 352.923 81.1507 352.922ZM81.1507 345.479C80.8738 345.48 80.6015 345.55 80.3589 345.683C80.1669 345.78 79.9968 345.916 79.859 346.081C79.7211 346.247 79.6185 346.438 79.5573 346.645C79.496 346.851 79.4775 347.068 79.5029 347.282C79.5282 347.495 79.5969 347.702 79.7047 347.888C79.8125 348.075 79.9572 348.237 80.1299 348.365C80.3025 348.494 80.4996 348.586 80.7091 348.636C80.9185 348.686 81.1359 348.692 81.348 348.655C81.56 348.618 81.7623 348.538 81.9424 348.42C82.1376 348.318 82.3088 348.176 82.445 348.003C82.5812 347.83 82.6793 347.63 82.7327 347.416C82.7861 347.202 82.7937 346.98 82.755 346.763C82.7163 346.546 82.6321 346.34 82.508 346.158C82.3597 345.937 82.1567 345.759 81.9188 345.64C81.6809 345.521 81.4163 345.466 81.1507 345.479Z" fill="#FF7C57"/>
</g>
<g style="mix-blend-mode:multiply" opacity="0.2">
<path d="M39.4121 354.302C37.9959 354.297 36.6301 353.777 35.569 352.839C34.5079 351.901 33.8239 350.609 33.6446 349.205C33.4653 347.8 33.8029 346.378 34.5944 345.204C35.3859 344.029 36.5774 343.183 37.9467 342.822C39.3161 342.461 40.7701 342.61 42.0376 343.242C43.3051 343.873 44.2997 344.944 44.836 346.255C45.3724 347.566 45.414 349.027 44.953 350.366C44.492 351.705 43.5599 352.83 42.3304 353.533C41.4415 354.04 40.4353 354.305 39.4121 354.302ZM39.4121 346.859C39.1334 346.868 38.8613 346.946 38.6203 347.086C38.4391 347.187 38.2799 347.323 38.152 347.486C38.024 347.65 37.93 347.837 37.8752 348.037C37.8204 348.237 37.8061 348.446 37.833 348.652C37.86 348.857 37.9277 349.056 38.0321 349.235C38.1349 349.429 38.277 349.6 38.4494 349.737C38.6219 349.873 38.8208 349.972 39.0336 350.027C39.2465 350.083 39.4685 350.093 39.6855 350.058C39.9026 350.023 40.1099 349.943 40.2944 349.823C40.4844 349.716 40.6507 349.571 40.783 349.397C40.9152 349.224 41.0107 349.025 41.0636 348.813C41.1166 348.602 41.1258 348.382 41.0908 348.166C41.0558 347.951 40.9772 347.745 40.8599 347.561C40.7578 347.383 40.6212 347.227 40.458 347.103C40.2948 346.978 40.1084 346.888 39.9098 346.837L39.4121 346.859Z" fill="#FF7C57"/>
</g>
<g style="mix-blend-mode:multiply" opacity="0.2">
<path d="M52.8046 325.82C51.3885 325.815 50.0226 325.295 48.9615 324.357C47.9004 323.419 47.2165 322.128 47.0372 320.723C46.8579 319.318 47.1954 317.896 47.9869 316.722C48.7784 315.547 49.9699 314.701 51.3393 314.34C52.7087 313.979 54.1626 314.128 55.4301 314.76C56.6976 315.392 57.6922 316.462 58.2286 317.773C58.765 319.084 58.8065 320.545 58.3455 321.884C57.8846 323.223 56.9524 324.349 55.7229 325.051C54.8328 325.555 53.8274 325.82 52.8046 325.82ZM52.8046 318.378C52.5319 318.378 52.2649 318.456 52.0354 318.604C51.8517 318.701 51.6903 318.836 51.5618 319C51.4332 319.164 51.3403 319.352 51.2889 319.554C51.181 319.959 51.2379 320.39 51.4473 320.753C51.5474 320.95 51.6882 321.123 51.8603 321.262C52.0325 321.4 52.2321 321.501 52.446 321.556C52.6598 321.612 52.883 321.622 53.1009 321.584C53.3187 321.547 53.5261 321.464 53.7095 321.341C53.8933 321.244 54.0546 321.109 54.1832 320.945C54.3118 320.781 54.4047 320.593 54.4561 320.391C54.5153 320.187 54.5317 319.974 54.5045 319.764C54.4772 319.553 54.4068 319.351 54.2977 319.169C54.1453 318.908 53.9221 318.695 53.654 318.555C53.3858 318.415 53.0836 318.353 52.782 318.378H52.8046Z" fill="#FF7C57"/>
</g>
<g style="mix-blend-mode:multiply" opacity="0.2">
<path d="M69.2738 324.916C68.2454 324.913 67.2356 324.64 66.3461 324.124C65.4566 323.608 64.7186 322.866 64.2064 321.975C63.8046 321.301 63.5451 320.551 63.4439 319.773C63.3428 318.995 63.4021 318.204 63.6182 317.45C63.8096 316.703 64.1483 316.001 64.6145 315.387C65.0807 314.772 65.6649 314.257 66.333 313.872C67.001 313.486 67.7393 313.238 68.5046 313.141C69.2699 313.045 70.0467 313.102 70.7895 313.31C71.9128 313.604 72.9228 314.226 73.6906 315.097C74.4583 315.968 74.9488 317.048 75.0994 318.2C75.25 319.351 75.0538 320.521 74.5359 321.56C74.018 322.599 73.202 323.46 72.1921 324.033C71.3161 324.584 70.3081 324.888 69.2738 324.916ZM69.2738 317.473C68.997 317.473 68.7247 317.543 68.482 317.676C68.1206 317.896 67.8544 318.243 67.7355 318.649C67.6276 319.054 67.6845 319.485 67.8938 319.848C67.9995 320.028 68.14 320.184 68.3071 320.308C68.4741 320.433 68.6644 320.522 68.8666 320.572C69.0665 320.631 69.2764 320.647 69.4829 320.62C69.6893 320.592 69.8879 320.522 70.0656 320.414C70.4303 320.208 70.6987 319.866 70.8122 319.464C70.8667 319.261 70.8807 319.051 70.8532 318.843C70.8258 318.636 70.7575 318.436 70.6523 318.255C70.5471 318.074 70.4071 317.916 70.2404 317.789C70.0737 317.663 69.8836 317.571 69.681 317.518L69.2738 317.473Z" fill="#FF7C57"/>
</g>
<g style="mix-blend-mode:multiply" opacity="0.2">
<path d="M40.3169 337.335C39.0283 337.335 37.7757 336.91 36.7529 336.126C35.7302 335.342 34.9944 334.243 34.6595 332.999C34.3246 331.755 34.4092 330.435 34.9003 329.243C35.3914 328.052 36.2615 327.056 37.376 326.409C38.72 325.629 40.3188 325.415 41.8206 325.813C43.3224 326.212 44.6044 327.191 45.3844 328.535C45.8939 329.427 46.1612 330.436 46.1595 331.463C46.1578 332.49 45.8873 333.499 45.3748 334.389C44.8623 335.279 44.1258 336.019 43.2385 336.536C42.3511 337.053 41.3439 337.328 40.3169 337.335ZM40.3169 329.892C40.0401 329.893 39.7678 329.963 39.5252 330.096C39.3308 330.199 39.1599 330.341 39.0234 330.513C38.887 330.686 38.7879 330.885 38.7326 331.098C38.6773 331.31 38.6669 331.532 38.702 331.749C38.7372 331.967 38.8172 332.174 38.937 332.358C39.0468 332.546 39.1924 332.709 39.3656 332.84C39.5387 332.971 39.736 333.067 39.9461 333.122C40.1563 333.176 40.3751 333.189 40.5901 333.159C40.8051 333.129 41.0121 333.057 41.1992 332.947C41.3888 332.839 41.5549 332.694 41.6875 332.521C41.8202 332.349 41.9169 332.151 41.9717 331.94C42.0266 331.729 42.0385 331.509 42.0068 331.293C41.9752 331.078 41.9006 330.871 41.7874 330.684C41.5676 330.323 41.2206 330.057 40.8146 329.938L40.3169 329.892Z" fill="#FF7C57"/>
</g>
<g style="mix-blend-mode:multiply" opacity="0.2">
<path d="M0.433346 406.56C-6.55203 406.56 -13.3805 404.489 -19.1883 400.607C-24.9961 396.726 -29.5224 391.209 -32.1945 384.755C-34.8667 378.301 -35.5647 371.2 -34.2003 364.349C-32.8358 357.498 -29.4703 351.206 -24.5293 346.268C-19.5883 341.33 -13.2939 337.969 -6.44216 336.608C0.409542 335.248 7.51068 335.951 13.963 338.627C20.4154 341.304 25.9291 345.833 29.8067 351.644C33.6843 357.454 35.7517 364.284 35.7472 371.269C35.7352 380.629 32.0101 389.602 25.3894 396.219C18.7687 402.835 9.7934 406.554 0.433346 406.56ZM0.433346 340.231C-5.70543 340.231 -11.7063 342.051 -16.8105 345.462C-21.9147 348.872 -25.893 353.72 -28.2422 359.391C-30.5914 365.063 -31.206 371.304 -30.0084 377.324C-28.8108 383.345 -25.8547 388.876 -21.5139 393.216C-17.1732 397.557 -11.6427 400.513 -5.6219 401.711C0.398911 402.909 6.63966 402.294 12.3111 399.945C17.9826 397.595 22.8301 393.617 26.2406 388.513C29.6512 383.409 31.4715 377.408 31.4715 371.269C31.4416 363.055 28.159 355.187 22.3421 349.387C16.5252 343.587 8.6477 340.327 0.433346 340.321V340.231Z" fill="#FF7C57"/>
</g>
<g style="mix-blend-mode:multiply" opacity="0.2">
<path d="M1.67761 397.036C-1.76136 397.027 -5.17619 396.462 -8.43467 395.362C-11.6499 394.292 -14.6224 392.597 -17.1819 390.376C-19.7415 388.155 -21.8377 385.451 -23.3507 382.419C-24.8637 379.387 -25.7637 376.086 -25.9992 372.705C-26.2346 369.324 -25.801 365.931 -24.7229 362.718C-23.8539 360.084 -22.4726 357.647 -20.6584 355.549C-18.8442 353.451 -16.633 351.732 -14.152 350.491C-11.671 349.251 -8.96924 348.513 -6.20208 348.321C-3.43493 348.128 -0.657055 348.485 1.97171 349.371C4.12324 350.089 6.11218 351.223 7.82482 352.711C9.53745 354.198 10.9402 356.008 11.9529 358.037C12.9656 360.067 13.5683 362.276 13.7267 364.539C13.885 366.801 13.5959 369.073 12.8758 371.224C12.2879 373.011 11.3522 374.663 10.1226 376.087C8.89291 377.51 7.39365 378.676 5.71124 379.517C4.02882 380.359 2.19653 380.858 0.320009 380.988C-1.55651 381.118 -3.44014 380.875 -5.22227 380.273C-8.19421 379.273 -10.6475 377.133 -12.043 374.325C-13.4386 371.517 -13.6624 368.27 -12.6651 365.297C-11.8296 362.814 -10.0429 360.764 -7.6972 359.598C-5.35154 358.431 -2.63881 358.243 -0.154812 359.076C0.890871 359.421 1.85742 359.971 2.68856 360.693C3.5197 361.415 4.19884 362.296 4.68642 363.283C5.19656 364.271 5.4998 365.352 5.5776 366.46C5.6554 367.569 5.50611 368.682 5.13887 369.731C4.85287 370.63 4.38965 371.462 3.7766 372.178C3.16355 372.895 2.41309 373.482 1.56955 373.903C0.726004 374.325 -0.193514 374.574 -1.13469 374.634C-2.07586 374.695 -3.0196 374.566 -3.91016 374.255C-5.44104 373.739 -6.7052 372.638 -7.42597 371.192C-8.14673 369.747 -8.2654 368.074 -7.756 366.541L-3.70655 367.898C-3.8437 368.351 -3.80018 368.84 -3.58511 369.262C-3.37003 369.683 -3.0001 370.006 -2.55281 370.161C-2.18447 370.288 -1.79426 370.339 -1.40553 370.312C-1.01681 370.285 -0.637577 370.18 -0.29055 370.002C0.041811 369.841 0.337645 369.613 0.578827 369.333C0.820009 369.053 1.00146 368.726 1.11205 368.373C1.28545 367.869 1.35675 367.334 1.3218 366.802C1.28686 366.269 1.14636 365.749 0.908485 365.271C0.670614 364.793 0.340113 364.367 -0.0638008 364.018C-0.467716 363.669 -0.936974 363.404 -1.4443 363.238C-2.14389 363.004 -2.88276 362.911 -3.61861 362.962C-4.35445 363.014 -5.07284 363.211 -5.73264 363.541C-6.39244 363.871 -6.9807 364.328 -7.46376 364.885C-7.94682 365.443 -8.31518 366.09 -8.54778 366.79C-9.17323 368.686 -9.02507 370.753 -8.13551 372.54C-7.24595 374.328 -5.68686 375.692 -3.79705 376.337C-1.28891 377.169 1.44684 376.975 3.81226 375.797C6.17768 374.618 7.98038 372.551 8.82635 370.048C9.37246 368.43 9.59371 366.721 9.47739 365.018C9.36108 363.314 8.90949 361.651 8.14856 360.123C7.38763 358.595 6.33235 357.232 5.04329 356.113C3.75424 354.993 2.25681 354.14 0.636974 353.601C-3.58101 352.188 -8.18747 352.507 -12.1705 354.488C-16.1535 356.468 -19.1874 359.949 -20.6056 364.166C-22.3849 369.566 -21.9564 375.451 -19.4136 380.537C-16.8707 385.622 -12.4199 389.496 -7.03207 391.313C-0.13802 393.615 7.38785 393.088 13.8939 389.848C20.4 386.608 25.3548 380.919 27.671 374.029L31.7204 375.386C29.6038 381.678 25.5706 387.149 20.1866 391.032C14.8027 394.915 8.3382 397.014 1.70024 397.036H1.67761Z" fill="#FF7C57"/>
</g>
</svg>
