<svg width="330" height="49" viewBox="0 0 330 49" fill="none" xmlns="http://www.w3.org/2000/svg">
<path d="M5.98495 48H0.199951V1.2H5.98495V48Z" fill="#FF8C0A"/>
<path d="M32.604 11.99C36.114 11.99 38.909 12.8567 40.989 14.59C43.069 16.3233 44.5206 18.4467 45.344 20.96C46.1673 23.4517 46.579 25.9975 46.579 28.5975V48H40.729V30.4175C40.729 26.6475 39.9923 23.5492 38.519 21.1225C37.0673 18.6958 34.6298 17.4825 31.2065 17.4825C28.2165 17.4825 25.8548 18.5008 24.1215 20.5375C22.4098 22.5525 21.554 25.5425 21.554 29.5075V48H15.704V12.9H20.904V17.4175C22.2256 15.6625 23.8723 14.3192 25.844 13.3875C27.8373 12.4558 30.0906 11.99 32.604 11.99Z" fill="#FF8C0A"/>
<path d="M78.8261 1.2H84.6436V48H79.4761V44.035C78.1544 45.6167 76.5728 46.8408 74.7311 47.7075C72.8894 48.5525 70.8094 48.975 68.4911 48.975C65.2844 48.975 62.4894 48.1733 60.1061 46.57C57.7444 44.945 55.9244 42.735 54.6461 39.94C53.3894 37.1233 52.7611 33.9492 52.7611 30.4175C52.7611 26.9075 53.3894 23.755 54.6461 20.96C55.9244 18.1433 57.7444 15.9333 60.1061 14.33C62.4894 12.7267 65.2736 11.925 68.4586 11.925C70.6036 11.925 72.5428 12.2825 74.2761 12.9975C76.0311 13.7125 77.5478 14.7417 78.8261 16.085V1.2ZM69.2061 43.6775C72.6078 43.6775 75.1644 42.475 76.8761 40.07C78.6094 37.665 79.4761 34.4475 79.4761 30.4175C79.4761 26.3875 78.6203 23.1808 76.9086 20.7975C75.1969 18.4142 72.6836 17.2225 69.3686 17.2225C67.0719 17.2225 65.1327 17.7967 63.5511 18.945C61.9911 20.0933 60.8211 21.6642 60.0411 23.6575C59.2827 25.6292 58.9036 27.8825 58.9036 30.4175C58.9036 32.9742 59.2827 35.2492 60.0411 37.2425C60.8211 39.2358 61.9802 40.8067 63.5186 41.955C65.0786 43.1033 66.9744 43.6775 69.2061 43.6775Z" fill="#FF8C0A"/>
<path d="M100.184 6.6925H94.3992V0.712494H100.184V6.6925ZM100.184 48H94.3992V12.9H100.184V48Z" fill="#FF8C0A"/>
<path d="M114.193 32.075C114.432 35.7367 115.461 38.5533 117.281 40.525C119.122 42.4967 121.657 43.4825 124.886 43.4825C127.182 43.4825 129.187 42.9517 130.898 41.89C132.632 40.8283 133.986 39.3008 134.961 37.3075L140.518 39.225C139.153 42.3017 137.106 44.6958 134.376 46.4075C131.646 48.1192 128.569 48.975 125.146 48.975C121.722 48.975 118.711 48.2167 116.111 46.7C113.532 45.1833 111.528 43.0383 110.098 40.265C108.69 37.4917 107.986 34.2958 107.986 30.6775C107.986 26.8858 108.679 23.5817 110.066 20.765C111.474 17.9267 113.446 15.7492 115.981 14.2325C118.537 12.6942 121.506 11.925 124.886 11.925C128.244 11.925 131.137 12.6833 133.563 14.2C136.012 15.695 137.886 17.8508 139.186 20.6675C140.486 23.4625 141.136 26.7883 141.136 30.645C141.136 31.2733 141.125 31.75 141.103 32.075H114.193ZM125.081 17.125C121.939 17.125 119.458 18.0025 117.638 19.7575C115.818 21.5125 114.702 24.0692 114.291 27.4275H135.091C134.376 20.5592 131.039 17.125 125.081 17.125Z" fill="#FF8C0A"/>
<path d="M156.172 48H148.339V1.2H176.517V9.0325H156.172V20.7H172.617V28.5H156.172V48Z" fill="#222222"/>
<path d="M196.913 48.975C193.446 48.975 190.391 48.195 187.748 46.635C185.105 45.0533 183.057 42.865 181.605 40.07C180.175 37.2533 179.46 34.0467 179.46 30.45C179.46 26.81 180.186 23.5925 181.638 20.7975C183.111 17.9808 185.17 15.8033 187.813 14.265C190.456 12.705 193.49 11.925 196.913 11.925C200.401 11.925 203.467 12.7158 206.11 14.2975C208.754 15.8575 210.801 18.0458 212.253 20.8625C213.705 23.6575 214.43 26.8533 214.43 30.45C214.43 34.0683 213.694 37.2858 212.22 40.1025C210.769 42.8975 208.71 45.075 206.045 46.635C203.402 48.195 200.358 48.975 196.913 48.975ZM196.913 41.63C199.925 41.63 202.21 40.6225 203.77 38.6075C205.352 36.5925 206.143 33.8733 206.143 30.45C206.143 26.9833 205.352 24.2533 203.77 22.26C202.21 20.2667 199.925 19.27 196.913 19.27C193.858 19.27 191.561 20.2775 190.023 22.2925C188.506 24.2858 187.748 27.005 187.748 30.45C187.748 33.9383 188.528 36.6792 190.088 38.6725C191.669 40.6442 193.945 41.63 196.913 41.63Z" fill="#222222"/>
<path d="M237.094 48.975C233.627 48.975 230.572 48.195 227.928 46.635C225.285 45.0533 223.238 42.865 221.786 40.07C220.356 37.2533 219.641 34.0467 219.641 30.45C219.641 26.81 220.367 23.5925 221.818 20.7975C223.292 17.9808 225.35 15.8033 227.993 14.265C230.637 12.705 233.67 11.925 237.094 11.925C240.582 11.925 243.648 12.7158 246.291 14.2975C248.934 15.8575 250.982 18.0458 252.434 20.8625C253.885 23.6575 254.611 26.8533 254.611 30.45C254.611 34.0683 253.874 37.2858 252.401 40.1025C250.949 42.8975 248.891 45.075 246.226 46.635C243.583 48.195 240.539 48.975 237.094 48.975ZM237.094 41.63C240.105 41.63 242.391 40.6225 243.951 38.6075C245.533 36.5925 246.324 33.8733 246.324 30.45C246.324 26.9833 245.533 24.2533 243.951 22.26C242.391 20.2667 240.105 19.27 237.094 19.27C234.039 19.27 231.742 20.2775 230.204 22.2925C228.687 24.2858 227.928 27.005 227.928 30.45C227.928 33.9383 228.708 36.6792 230.268 38.6725C231.85 40.6442 234.125 41.63 237.094 41.63Z" fill="#222222"/>
<path d="M284.879 1.2H292.777V48H285.854V45.4C283.232 47.7833 279.896 48.975 275.844 48.975C272.681 48.975 269.875 48.1733 267.427 46.57C265 44.945 263.126 42.735 261.804 39.94C260.482 37.1233 259.822 33.96 259.822 30.45C259.822 26.8967 260.493 23.7225 261.837 20.9275C263.18 18.1108 265.087 15.9117 267.557 14.33C270.027 12.7267 272.887 11.925 276.137 11.925C279.517 11.925 282.431 12.8242 284.879 14.6225V1.2ZM277.047 41.955C280.058 41.955 282.279 40.9367 283.709 38.9C285.139 36.8417 285.854 34.025 285.854 30.45C285.854 26.875 285.15 24.0692 283.742 22.0325C282.333 19.9742 280.188 18.945 277.307 18.945C275.27 18.945 273.558 19.4542 272.172 20.4725C270.807 21.4692 269.788 22.8342 269.117 24.5675C268.445 26.3008 268.109 28.2617 268.109 30.45C268.109 32.66 268.434 34.6317 269.084 36.365C269.756 38.0983 270.752 39.4633 272.074 40.46C273.417 41.4567 275.075 41.955 277.047 41.955Z" fill="#222222"/>
<path d="M315.441 48.975C311.108 48.975 307.587 48 304.879 46.05C302.171 44.1 300.524 41.3592 299.939 37.8275L307.934 36.5925C308.324 38.3475 309.223 39.7233 310.631 40.72C312.061 41.695 313.849 42.1825 315.994 42.1825C317.857 42.1825 319.309 41.8142 320.349 41.0775C321.389 40.3192 321.909 39.29 321.909 37.99C321.909 37.145 321.703 36.495 321.291 36.04C320.901 35.585 320.11 35.1408 318.919 34.7075C317.727 34.2525 315.745 33.6567 312.971 32.92C310.003 32.14 307.652 31.3058 305.919 30.4175C304.207 29.5075 302.972 28.4458 302.214 27.2325C301.456 25.9975 301.076 24.4917 301.076 22.715C301.076 20.5483 301.64 18.6525 302.766 17.0275C303.915 15.4025 305.529 14.1458 307.609 13.2575C309.71 12.3692 312.137 11.925 314.889 11.925C317.597 11.925 320.013 12.3475 322.136 13.1925C324.26 14.0375 325.971 15.2508 327.271 16.8325C328.593 18.3925 329.395 20.2125 329.676 22.2925L321.681 23.7225C321.465 22.2275 320.771 21.0467 319.601 20.18C318.453 19.3133 316.925 18.8258 315.019 18.7175C313.177 18.6308 311.693 18.9233 310.566 19.595C309.44 20.245 308.876 21.155 308.876 22.325C308.876 23.04 309.104 23.625 309.559 24.08C310.036 24.535 310.935 25.0008 312.256 25.4775C313.578 25.9325 315.647 26.5175 318.464 27.2325C321.302 27.9692 323.545 28.7925 325.191 29.7025C326.86 30.6125 328.062 31.7067 328.799 32.985C329.557 34.2417 329.936 35.7908 329.936 37.6325C329.936 39.9725 329.351 41.9983 328.181 43.71C327.033 45.4 325.365 46.7 323.176 47.61C321.01 48.52 318.431 48.975 315.441 48.975Z" fill="#222222"/>
</svg>
